<svg width="190" height="50" viewBox="0 0 190 50" fill="none" xmlns="http://www.w3.org/2000/svg">
<path d="M52.0582 25C52.0582 38.8071 40.8598 50 27.0459 50C13.2319 50 2.03353 38.8071 2.03353 25C2.03353 11.1929 13.2319 0 27.0459 0C40.8598 0 52.0582 11.1929 52.0582 25Z" fill="#C3AEC1"/>
<path d="M72.1179 22.4266C70.7666 22.4266 69.5859 22.1381 68.5757 21.5611C67.5786 20.971 66.8045 20.1515 66.2535 19.1024C65.7025 18.0403 65.427 16.788 65.427 15.3455C65.427 13.8638 65.7156 12.5721 66.2929 11.4706C66.8701 10.356 67.677 9.49056 68.7134 8.87425C69.7499 8.25793 70.9568 7.94978 72.3344 7.94978C73.0166 7.94978 73.6004 8.01534 74.0858 8.14647C74.5713 8.26449 74.9845 8.41529 75.3256 8.59887C75.6799 8.76934 75.9816 8.92014 76.2309 9.05127C76.4802 9.16929 76.7032 9.2283 76.9 9.2283C77.0968 9.2283 77.2476 9.13651 77.3526 8.95292C77.4707 8.76934 77.556 8.46774 77.6084 8.04813H78.4153C78.389 8.48085 78.3694 8.93326 78.3562 9.40532C78.3431 9.86428 78.33 10.4019 78.3169 11.0182C78.3169 11.6345 78.3169 12.4017 78.3169 13.3196H77.5297C77.4116 12.4017 77.1427 11.6083 76.7229 10.9396C76.3162 10.2708 75.7914 9.75938 75.1485 9.40532C74.5188 9.03816 73.8038 8.85458 73.0035 8.85458C72.0589 8.85458 71.252 9.11028 70.5829 9.62169C69.927 10.12 69.4219 10.8478 69.0676 11.805C68.7265 12.7623 68.556 13.9228 68.556 15.2865C68.556 17.2797 68.9233 18.8336 69.658 19.9482C70.4058 21.0628 71.4488 21.6201 72.787 21.6201C73.3118 21.6201 73.7644 21.5414 74.1449 21.3841C74.5254 21.2267 74.814 21.0038 75.0108 20.7153C75.2207 20.4137 75.3256 20.0662 75.3256 19.6728V17.8829C75.3256 17.4633 75.2732 17.1486 75.1682 16.9388C75.0633 16.7158 74.8599 16.5585 74.5582 16.4667C74.2695 16.3749 73.8431 16.3159 73.279 16.2897V15.5422C73.5414 15.5553 73.9481 15.5684 74.4991 15.5816C75.0632 15.5947 75.7455 15.6012 76.5458 15.6012C77.2542 15.6012 77.8643 15.5947 78.3759 15.5816C78.9007 15.5684 79.3336 15.5553 79.6748 15.5422V16.2897C79.2943 16.3159 79.0057 16.3749 78.8089 16.4667C78.6121 16.5585 78.4809 16.7224 78.4153 16.9584C78.3628 17.1814 78.3366 17.5223 78.3366 17.9812V22.2692H77.5494C77.4969 21.9152 77.4116 21.666 77.2936 21.5218C77.1755 21.3644 77.0049 21.2857 76.7819 21.2857C76.5589 21.2857 76.3096 21.3447 76.0341 21.4628C75.7586 21.5677 75.4372 21.6988 75.0698 21.8561C74.7156 22.0135 74.2958 22.1446 73.8103 22.2495C73.338 22.3676 72.7739 22.4266 72.1179 22.4266Z" fill="white"/>
<path d="M81.3111 22.1512V21.3841C82.0064 21.371 82.4919 21.2661 82.7674 21.0694C83.0429 20.8727 83.1806 20.5055 83.1806 19.9679V14.4801C83.1806 13.89 83.0429 13.4638 82.7674 13.2015C82.505 12.9262 82.0195 12.7754 81.3111 12.7491V11.982C81.5735 11.9951 81.8424 12.0083 82.1179 12.0214C82.3935 12.0345 82.669 12.041 82.9445 12.041C83.5086 12.041 84.0334 12.0214 84.5188 11.982C85.0174 11.9296 85.4765 11.8575 85.8964 11.7657V19.9679C85.8964 20.5055 86.0341 20.8727 86.3096 21.0694C86.5851 21.2661 87.0706 21.371 87.7659 21.3841V22.1512C87.5691 22.1381 87.2936 22.1315 86.9394 22.1315C86.5983 22.1184 86.2178 22.1053 85.798 22.0922C85.3913 22.0791 84.9846 22.0725 84.5779 22.0725C83.9612 22.0725 83.3381 22.0856 82.7083 22.1119C82.0917 22.125 81.626 22.1381 81.3111 22.1512ZM84.4598 9.95607C84.0268 9.95607 83.6398 9.81838 83.2987 9.54301C82.9707 9.26764 82.8067 8.89392 82.8067 8.42185C82.8067 7.93667 82.9707 7.55639 83.2987 7.28101C83.6398 7.00564 84.0268 6.86795 84.4598 6.86795C84.8927 6.86795 85.2732 7.00564 85.6012 7.28101C85.9423 7.55639 86.1128 7.93011 86.1128 8.40218C86.1128 8.88736 85.9423 9.26764 85.6012 9.54301C85.2732 9.81838 84.8927 9.95607 84.4598 9.95607Z" fill="white"/>
<path d="M95.8872 22.1512V21.3841C96.3726 21.371 96.7006 21.2661 96.8711 21.0694C97.0548 20.8596 97.1466 20.4924 97.1466 19.9679V15.0898C97.1466 14.3817 97.0023 13.8506 96.7137 13.4966C96.4382 13.1425 96.0249 12.9655 95.4739 12.9655C95.041 12.9655 94.6408 13.0901 94.2735 13.3392C93.9061 13.5884 93.5912 13.949 93.3289 14.4211V13.5556C93.6568 12.9655 94.1029 12.5131 94.667 12.1984C95.2443 11.8706 95.9003 11.7067 96.635 11.7067C97.6845 11.7067 98.4848 12.0214 99.0358 12.6508C99.5869 13.2671 99.8624 14.1588 99.8624 15.3259V19.9679C99.8624 20.4924 100 20.8596 100.276 21.0694C100.551 21.2661 101.037 21.371 101.732 21.3841V22.1512C101.535 22.1381 101.26 22.1315 100.905 22.1315C100.564 22.1184 100.184 22.1053 99.764 22.0922C99.3573 22.0791 98.9571 22.0725 98.5635 22.0725C98.0519 22.0725 97.5402 22.0856 97.0286 22.1119C96.5169 22.125 96.1364 22.1381 95.8872 22.1512ZM88.842 22.1512V21.3841C89.5504 21.371 90.0359 21.2661 90.2983 21.0694C90.5738 20.8596 90.7115 20.4924 90.7115 19.9679V14.4801C90.7115 13.8638 90.5672 13.431 90.2786 13.1819C90.0031 12.9196 89.5242 12.7754 88.842 12.7491V11.982C89.1175 11.9951 89.393 12.0083 89.6685 12.0214C89.944 12.0345 90.2261 12.041 90.5147 12.041C91.0789 12.041 91.6036 12.0214 92.0891 11.982C92.5745 11.9296 93.0206 11.8575 93.4273 11.7657V19.9679C93.4273 20.4924 93.5191 20.8596 93.7028 21.0694C93.8864 21.2661 94.2144 21.371 94.6867 21.3841V22.1512C94.4112 22.1381 94.0373 22.125 93.565 22.1119C93.0927 22.0856 92.6007 22.0725 92.0891 22.0725C91.5118 22.0725 90.9149 22.0856 90.2983 22.1119C89.6948 22.125 89.2093 22.1381 88.842 22.1512Z" fill="white"/>
<path d="M107.993 22.4266C107.009 22.4266 106.15 22.2168 105.415 21.7971C104.693 21.3644 104.136 20.7481 103.742 19.9482C103.349 19.1483 103.152 18.1976 103.152 17.0961C103.152 15.9422 103.362 14.9653 103.782 14.1654C104.201 13.3655 104.792 12.7557 105.553 12.3361C106.314 11.9165 107.206 11.7067 108.229 11.7067C109.148 11.7067 109.928 11.8771 110.571 12.2181C111.214 12.5459 111.699 13.0639 112.027 13.772C112.355 14.4801 112.506 15.398 112.48 16.5257H105.1L105.08 15.7783H110.02C110.033 15.1357 109.974 14.5719 109.843 14.0867C109.725 13.5884 109.528 13.195 109.252 12.9065C108.977 12.618 108.616 12.4738 108.17 12.4738C107.606 12.4738 107.121 12.7491 106.714 13.2999C106.32 13.8506 106.084 14.7227 106.005 15.9159L106.045 15.9946C106.032 16.1126 106.025 16.2438 106.025 16.388C106.025 16.5323 106.025 16.6962 106.025 16.8798C106.025 18.1779 106.268 19.1942 106.753 19.9285C107.252 20.6629 107.973 21.03 108.918 21.03C109.561 21.03 110.118 20.8727 110.591 20.558C111.076 20.2301 111.483 19.7318 111.811 19.0631L112.519 19.4565C112.139 20.4137 111.562 21.148 110.787 21.6595C110.013 22.1709 109.082 22.4266 107.993 22.4266Z" fill="white"/>
<path d="M113.866 22.1512V21.3841C114.601 21.3447 115.093 21.2267 115.342 21.03C115.604 20.8333 115.735 20.4793 115.735 19.9679V9.46433C115.735 8.84802 115.598 8.41529 115.322 8.16614C115.047 7.90388 114.561 7.75964 113.866 7.73341V6.9663C114.22 6.97941 114.528 6.99253 114.791 7.00564C115.053 7.01875 115.309 7.02531 115.558 7.02531C116.569 7.02531 117.533 6.93352 118.451 6.74993V19.9679C118.451 20.4662 118.543 20.8202 118.727 21.03C118.91 21.2267 119.258 21.3447 119.77 21.3841V22.1512C119.455 22.1381 119.048 22.125 118.55 22.1119C118.064 22.0856 117.592 22.0725 117.133 22.0725C116.529 22.0725 115.913 22.0856 115.283 22.1119C114.666 22.125 114.194 22.1381 113.866 22.1512ZM121.069 22.1512V21.3841C121.541 21.3316 121.836 21.2267 121.954 21.0694C122.072 20.8989 122.046 20.617 121.875 20.2236L121.147 18.355C120.95 17.8829 120.714 17.5551 120.439 17.3715C120.176 17.1748 119.809 17.0764 119.337 17.0764H118.117V16.3093H119.632C120.026 16.3093 120.354 16.2438 120.616 16.1126C120.891 15.9815 121.154 15.7586 121.403 15.4439L121.777 14.9325C122.026 14.644 122.177 14.3752 122.23 14.126C122.282 13.8638 122.249 13.6343 122.131 13.4376C122.026 13.2409 121.836 13.0835 121.561 12.9655C121.298 12.8344 120.95 12.7623 120.518 12.7491V11.982C120.924 11.9951 121.364 12.0083 121.836 12.0214C122.308 12.0345 122.827 12.041 123.391 12.041C123.719 12.041 124.027 12.041 124.316 12.041C124.604 12.0279 124.893 12.0214 125.182 12.0214C125.47 12.0083 125.772 11.9951 126.087 11.982V12.7491C125.628 12.8409 125.214 12.9655 124.847 13.1229C124.493 13.2802 124.165 13.4835 123.863 13.7326C123.574 13.9687 123.279 14.2768 122.977 14.6571L121.521 16.5454L121.206 16.0143C121.731 16.0536 122.157 16.152 122.485 16.3093C122.813 16.4536 123.096 16.6896 123.332 17.0174C123.568 17.3322 123.791 17.7714 124.001 18.3353L124.571 19.6925C124.742 20.099 124.919 20.4203 125.103 20.6563C125.3 20.8792 125.536 21.0497 125.811 21.1677C126.087 21.2726 126.441 21.3447 126.874 21.3841V22.1512C126.441 22.1381 126.047 22.1315 125.693 22.1315C125.352 22.1184 125.031 22.1119 124.729 22.1119C124.44 22.0987 124.145 22.0922 123.843 22.0922C123.41 22.0922 122.977 22.0987 122.544 22.1119C122.125 22.1119 121.633 22.125 121.069 22.1512Z" fill="white"/>
<path d="M132.803 22.4266C131.819 22.4266 130.947 22.2364 130.186 21.8561C129.425 21.4628 128.828 20.8727 128.395 20.0859C127.962 19.286 127.746 18.2828 127.746 17.0764C127.746 15.87 127.962 14.8669 128.395 14.067C128.828 13.2671 129.425 12.677 130.186 12.2967C130.947 11.9034 131.819 11.7067 132.803 11.7067C133.8 11.7067 134.673 11.9034 135.421 12.2967C136.169 12.677 136.759 13.2671 137.192 14.067C137.625 14.8669 137.841 15.87 137.841 17.0764C137.841 18.2828 137.625 19.286 137.192 20.0859C136.759 20.8727 136.169 21.4628 135.421 21.8561C134.673 22.2364 133.8 22.4266 132.803 22.4266ZM132.803 21.6595C133.433 21.6595 133.951 21.2988 134.358 20.5776C134.778 19.8433 134.988 18.6762 134.988 17.0764C134.988 15.4504 134.778 14.2768 134.358 13.5556C133.951 12.8213 133.433 12.4541 132.803 12.4541C132.161 12.4541 131.636 12.8213 131.229 13.5556C130.822 14.2768 130.619 15.4504 130.619 17.0764C130.619 18.6762 130.822 19.8433 131.229 20.5776C131.636 21.2988 132.161 21.6595 132.803 21.6595Z" fill="white"/>
<path d="M139.342 22.1512V21.3841C140.037 21.371 140.522 21.2661 140.798 21.0694C141.073 20.8727 141.211 20.5055 141.211 19.9679V9.46433C141.211 8.87425 141.073 8.44807 140.798 8.18581C140.535 7.91044 140.05 7.75964 139.342 7.73341V6.9663C139.617 6.97941 139.893 6.99253 140.168 7.00564C140.444 7.01875 140.713 7.02531 140.975 7.02531C141.539 7.02531 142.07 7.00564 142.569 6.9663C143.068 6.91385 143.52 6.84173 143.927 6.74993V19.9679C143.927 20.5055 144.065 20.8727 144.34 21.0694C144.629 21.2661 145.114 21.371 145.796 21.3841V22.1512C145.6 22.1381 145.324 22.1315 144.97 22.1315C144.629 22.1184 144.248 22.1053 143.828 22.0922C143.422 22.0791 143.015 22.0725 142.608 22.0725C142.005 22.0725 141.388 22.0856 140.758 22.1119C140.129 22.125 139.656 22.1381 139.342 22.1512Z" fill="white"/>
<path d="M152.345 22.4266C151.361 22.4266 150.489 22.2364 149.728 21.8561C148.967 21.4628 148.37 20.8727 147.937 20.0859C147.504 19.286 147.288 18.2828 147.288 17.0764C147.288 15.87 147.504 14.8669 147.937 14.067C148.37 13.2671 148.967 12.677 149.728 12.2967C150.489 11.9034 151.361 11.7067 152.345 11.7067C153.342 11.7067 154.215 11.9034 154.963 12.2967C155.71 12.677 156.301 13.2671 156.734 14.067C157.167 14.8669 157.383 15.87 157.383 17.0764C157.383 18.2828 157.167 19.286 156.734 20.0859C156.301 20.8727 155.71 21.4628 154.963 21.8561C154.215 22.2364 153.342 22.4266 152.345 22.4266ZM152.345 21.6595C152.975 21.6595 153.493 21.2988 153.9 20.5776C154.32 19.8433 154.53 18.6762 154.53 17.0764C154.53 15.4504 154.32 14.2768 153.9 13.5556C153.493 12.8213 152.975 12.4541 152.345 12.4541C151.702 12.4541 151.178 12.8213 150.771 13.5556C150.364 14.2768 150.161 15.4504 150.161 17.0764C150.161 18.6762 150.364 19.8433 150.771 20.5776C151.178 21.2988 151.702 21.6595 152.345 21.6595Z" fill="white"/>
<path d="M163.371 26.8522C161.981 26.8522 160.898 26.6227 160.124 26.1638C159.35 25.7179 158.963 25.1344 158.963 24.4132C158.963 23.81 159.199 23.2855 159.672 22.8396C160.144 22.3938 160.833 22.0201 161.738 21.7185L162.25 21.9938C161.922 22.1905 161.659 22.4659 161.463 22.82C161.279 23.174 161.187 23.5608 161.187 23.9805C161.187 24.6623 161.417 25.1869 161.876 25.554C162.335 25.9212 162.984 26.1048 163.824 26.1048C164.493 26.1048 165.077 25.9933 165.576 25.7704C166.074 25.5606 166.468 25.2655 166.756 24.8853C167.045 24.5181 167.189 24.0919 167.189 23.6067C167.189 23.1478 167.038 22.8003 166.737 22.5643C166.448 22.3413 166.008 22.2299 165.418 22.2299H163.332C162.479 22.2299 161.804 22.066 161.305 21.7381C160.807 21.3972 160.557 20.9514 160.557 20.4006C160.557 19.9416 160.715 19.522 161.03 19.1418C161.344 18.7484 161.83 18.3746 162.486 18.0206L163.155 18.0993C162.906 18.2697 162.729 18.4402 162.624 18.6107C162.519 18.768 162.466 18.9385 162.466 19.1221C162.466 19.3843 162.578 19.5876 162.801 19.7318C163.037 19.863 163.365 19.9285 163.785 19.9285H165.949C167.091 19.9285 167.963 20.158 168.567 20.617C169.17 21.0759 169.472 21.7512 169.472 22.6429C169.472 23.4691 169.216 24.1968 168.704 24.8263C168.193 25.4688 167.478 25.9671 166.559 26.3211C165.654 26.6752 164.592 26.8522 163.371 26.8522ZM163.765 18.2173C162.492 18.2173 161.489 17.9288 160.754 17.3518C160.033 16.7748 159.672 15.975 159.672 14.9521C159.672 13.9424 160.033 13.1491 160.754 12.5721C161.489 11.9951 162.492 11.7067 163.765 11.7067C165.038 11.7067 166.028 11.9951 166.737 12.5721C167.445 13.136 167.799 13.9293 167.799 14.9521C167.799 15.975 167.445 16.7748 166.737 17.3518C166.028 17.9288 165.038 18.2173 163.765 18.2173ZM163.785 17.4698C164.296 17.4698 164.683 17.2666 164.946 16.8601C165.208 16.4405 165.339 15.8045 165.339 14.9521C165.339 14.0998 165.208 13.4704 164.946 13.0639C164.696 12.6442 164.309 12.4344 163.785 12.4344C163.273 12.4344 162.886 12.6442 162.624 13.0639C162.361 13.4704 162.23 14.0998 162.23 14.9521C162.23 15.8045 162.361 16.4405 162.624 16.8601C162.886 17.2666 163.273 17.4698 163.785 17.4698ZM169.551 14.4014C169.288 14.4014 169.092 14.3162 168.96 14.1457C168.842 13.9752 168.744 13.7785 168.665 13.5556C168.6 13.3327 168.527 13.1425 168.449 12.9852C168.37 12.8147 168.252 12.7295 168.094 12.7295C168.016 12.7295 167.904 12.7754 167.76 12.8672C167.616 12.9458 167.465 13.0639 167.307 13.2212C167.163 13.3655 167.025 13.5556 166.894 13.7916L166.559 13.2015C166.835 12.7557 167.202 12.3951 167.661 12.1197C168.121 11.8443 168.593 11.7067 169.078 11.7067C169.511 11.7067 169.859 11.8312 170.121 12.0804C170.384 12.3295 170.515 12.677 170.515 13.1229C170.515 13.5031 170.423 13.8113 170.239 14.0473C170.069 14.2834 169.839 14.4014 169.551 14.4014Z" fill="white"/>
<path d="M171.537 22.1512V21.3841C172.232 21.371 172.718 21.2661 172.993 21.0694C173.269 20.8727 173.406 20.5055 173.406 19.9679V14.4801C173.406 13.89 173.269 13.4638 172.993 13.2015C172.731 12.9262 172.245 12.7754 171.537 12.7491V11.982C171.799 11.9951 172.068 12.0083 172.344 12.0214C172.619 12.0345 172.895 12.041 173.17 12.041C173.734 12.041 174.259 12.0214 174.745 11.982C175.243 11.9296 175.702 11.8575 176.122 11.7657V19.9679C176.122 20.5055 176.26 20.8727 176.535 21.0694C176.811 21.2661 177.296 21.371 177.992 21.3841V22.1512C177.795 22.1381 177.519 22.1315 177.165 22.1315C176.824 22.1184 176.444 22.1053 176.024 22.0922C175.617 22.0791 175.21 22.0725 174.804 22.0725C174.187 22.0725 173.564 22.0856 172.934 22.1119C172.317 22.125 171.852 22.1381 171.537 22.1512ZM174.686 9.95607C174.253 9.95607 173.866 9.81838 173.524 9.54301C173.196 9.26764 173.032 8.89392 173.032 8.42185C173.032 7.93667 173.196 7.55639 173.524 7.28101C173.866 7.00564 174.253 6.86795 174.686 6.86795C175.118 6.86795 175.499 7.00564 175.827 7.28101C176.168 7.55639 176.339 7.93011 176.339 8.40218C176.339 8.88736 176.168 9.26764 175.827 9.54301C175.499 9.81838 175.118 9.95607 174.686 9.95607Z" fill="white"/>
<path d="M182.246 22.4266C181.38 22.4266 180.692 22.2036 180.18 21.7578C179.668 21.2988 179.413 20.6825 179.413 19.9089C179.413 19.3057 179.55 18.8205 179.826 18.4533C180.114 18.073 180.482 17.7649 180.928 17.5288C181.374 17.2928 181.846 17.1027 182.345 16.9584C182.856 16.8011 183.335 16.6568 183.781 16.5257C184.227 16.3815 184.588 16.2175 184.864 16.034C185.152 15.8373 185.297 15.5816 185.297 15.2668V14.3227C185.297 13.7326 185.139 13.2802 184.824 12.9655C184.509 12.6508 184.044 12.4934 183.427 12.4934C182.981 12.4934 182.614 12.559 182.325 12.6901C182.036 12.8213 181.892 12.9917 181.892 13.2015C181.892 13.3589 181.945 13.5163 182.05 13.6736C182.155 13.831 182.253 14.0014 182.345 14.185C182.45 14.3555 182.502 14.5456 182.502 14.7554C182.502 15.0439 182.384 15.28 182.148 15.4635C181.925 15.634 181.623 15.7193 181.243 15.7193C180.81 15.7193 180.462 15.5947 180.2 15.3455C179.95 15.0833 179.826 14.7423 179.826 14.3227C179.826 13.7982 180.009 13.3458 180.377 12.9655C180.757 12.5721 181.282 12.264 181.951 12.041C182.62 11.8181 183.388 11.7067 184.254 11.7067C185.146 11.7067 185.867 11.8312 186.418 12.0804C186.969 12.3164 187.37 12.7098 187.619 13.2606C187.881 13.7982 188.012 14.5194 188.012 15.4242V20.499C188.012 20.8006 188.058 21.0169 188.15 21.148C188.242 21.2792 188.393 21.3447 188.603 21.3447C188.773 21.3447 188.95 21.3054 189.134 21.2267C189.318 21.148 189.501 21.0431 189.685 20.912L190 21.5414C189.659 21.8299 189.272 22.0463 188.839 22.1905C188.406 22.3479 187.921 22.4266 187.383 22.4266C186.018 22.4266 185.329 21.8889 185.316 20.8137C184.936 21.3513 184.49 21.7578 183.978 22.0332C183.466 22.2954 182.889 22.4266 182.246 22.4266ZM183.506 20.971C183.86 20.971 184.188 20.8923 184.49 20.735C184.792 20.5645 185.061 20.3219 185.297 20.0072V16.3487C185.179 16.5454 184.995 16.7224 184.746 16.8798C184.509 17.024 184.241 17.1682 183.939 17.3125C183.637 17.4567 183.348 17.6206 183.073 17.8042C182.797 17.9878 182.568 18.2173 182.384 18.4927C182.2 18.7549 182.109 19.0893 182.109 19.4958C182.109 19.9548 182.233 20.3154 182.483 20.5776C182.732 20.8399 183.073 20.971 183.506 20.971Z" fill="white"/>
<path d="M68.8381 40.221C68.3483 40.221 67.9284 40.1204 67.5786 39.9194C67.2287 39.7183 66.9795 39.4823 66.8308 39.2112L66.9751 38.7523C67.0888 38.9971 67.2768 39.2025 67.5392 39.3686C67.8103 39.526 68.1208 39.6046 68.4707 39.6046C69.0829 39.6046 69.5509 39.3511 69.8745 38.8441C70.1981 38.3371 70.3599 37.5984 70.3599 36.628C70.3599 35.7188 70.2156 35.0194 69.927 34.5299C69.6471 34.0403 69.236 33.7956 68.6937 33.7956C68.3264 33.7956 67.9809 33.9136 67.6573 34.1496C67.3337 34.3769 67.115 34.6654 67.0013 35.0151L66.9095 34.7004C67.0407 34.2196 67.3162 33.8305 67.736 33.5333C68.1558 33.2361 68.6413 33.0875 69.1923 33.0875C69.7433 33.0875 70.22 33.2317 70.6223 33.5202C71.0246 33.8087 71.3351 34.2108 71.5538 34.7266C71.7724 35.2424 71.8818 35.8543 71.8818 36.5624C71.8818 37.3142 71.755 37.9655 71.5013 38.5163C71.2564 39.0583 70.9022 39.4779 70.4386 39.7751C69.9838 40.0723 69.4503 40.221 68.8381 40.221ZM65.5713 40.2472L65.2171 39.8276C65.3308 39.7139 65.4182 39.6003 65.4795 39.4866C65.5494 39.373 65.5932 39.2375 65.6106 39.0801C65.6369 38.9228 65.65 38.7348 65.65 38.5163V31.5795C65.65 31.1686 65.5494 30.8757 65.3483 30.7009C65.1471 30.5261 64.7841 30.4343 64.2593 30.4255V29.901C64.4168 29.9097 64.5873 29.9185 64.771 29.9272C64.9634 29.936 65.1471 29.9403 65.322 29.9403C65.6719 29.9403 65.9911 29.9272 66.2797 29.901C66.5684 29.866 66.8395 29.8179 67.0932 29.7568V39.4079C66.9095 39.4517 66.7258 39.5128 66.5421 39.5915C66.3585 39.6702 66.1835 39.7664 66.0174 39.88C65.8512 39.9937 65.7025 40.1161 65.5713 40.2472Z" fill="white"/>
<path d="M76.6088 40.3783L74.0767 34.6479C73.9455 34.3507 73.775 34.1365 73.5651 34.0054C73.3551 33.8655 73.084 33.7956 72.7516 33.7956V33.2842C73.0665 33.2929 73.3639 33.3016 73.6438 33.3104C73.9324 33.3191 74.2516 33.3235 74.6015 33.3235C74.9863 33.3235 75.3231 33.3191 75.6117 33.3104C75.9003 33.3016 76.1671 33.2929 76.412 33.2842V33.7956C75.9834 33.8043 75.7167 33.8874 75.6117 34.0447C75.5067 34.2021 75.5374 34.4687 75.7035 34.8446L77.3566 38.6212L77.1204 38.713L78.3274 35.6707C78.4849 35.2686 78.5592 34.932 78.5505 34.661C78.5505 34.39 78.4674 34.1846 78.3012 34.0447C78.1438 33.8961 77.9076 33.8131 77.5927 33.7956V33.2842C77.8114 33.2929 78.0038 33.3016 78.17 33.3104C78.3362 33.3104 78.498 33.3104 78.6554 33.3104C78.8216 33.3104 78.9965 33.3104 79.1802 33.3104C79.4164 33.3104 79.6612 33.3104 79.9149 33.3104C80.1685 33.3016 80.3872 33.2929 80.5709 33.2842V33.7956C80.2123 33.8305 79.9105 33.9617 79.6656 34.189C79.4207 34.4163 79.2021 34.779 79.0097 35.2773L77.0286 40.3783H76.6088ZM74.7589 43.2501C74.3216 43.2501 73.9674 43.1364 73.6963 42.9091C73.4339 42.6906 73.3027 42.4021 73.3027 42.0437C73.3027 41.7552 73.3901 41.5235 73.5651 41.3487C73.74 41.1826 73.9674 41.0995 74.2473 41.0995C74.4484 41.0995 74.6102 41.1476 74.7327 41.2438C74.8551 41.3487 74.9164 41.4886 74.9164 41.6634C74.9164 41.7858 74.8945 41.8951 74.8508 41.9912C74.807 42.0874 74.7633 42.1748 74.7196 42.2535C74.6758 42.3409 74.654 42.4283 74.654 42.5157C74.654 42.6644 74.7502 42.7387 74.9426 42.7387C75.1438 42.7387 75.3231 42.6687 75.4805 42.5289C75.6379 42.389 75.7735 42.1792 75.8872 41.8994L76.7269 39.8013L77.1598 40.0374L76.3989 41.9519C76.2764 42.2491 76.1365 42.4939 75.979 42.6862C75.8304 42.8785 75.6554 43.0184 75.4543 43.1058C75.2618 43.202 75.0301 43.2501 74.7589 43.2501Z" fill="white"/>
<path d="M85.0337 40.0374V39.526C85.4798 39.5085 85.8078 39.4735 86.0177 39.4211C86.2276 39.3599 86.3675 39.255 86.4375 39.1063C86.5075 38.949 86.5425 38.713 86.5425 38.3982V32.3925C86.5425 32.0778 86.5075 31.8461 86.4375 31.6975C86.3675 31.5401 86.2276 31.4309 86.0177 31.3697C85.8078 31.3085 85.4798 31.2735 85.0337 31.2648V30.7533C85.2961 30.7621 85.6066 30.7708 85.9652 30.7796C86.3238 30.7796 86.7655 30.7796 87.2903 30.7796C87.5352 30.7796 87.7801 30.7796 88.025 30.7796C88.2786 30.7708 88.5148 30.7665 88.7334 30.7665C88.9608 30.7577 89.1445 30.7533 89.2845 30.7533C90.9812 30.7533 92.2626 31.1292 93.1285 31.8811C93.9944 32.6329 94.4273 33.7387 94.4273 35.1987C94.4273 36.2215 94.2218 37.0957 93.8107 37.8213C93.3996 38.5381 92.8049 39.0889 92.0264 39.4735C91.2568 39.8494 90.3296 40.0374 89.2451 40.0374C89.0177 40.0374 88.7422 40.033 88.4186 40.0243C88.1037 40.0068 87.7276 39.998 87.2903 39.998C86.8442 39.998 86.42 40.0024 86.0177 40.0111C85.6154 40.0199 85.2874 40.0286 85.0337 40.0374ZM89.1795 39.5391C90.4302 39.5391 91.3442 39.2069 91.9215 38.5425C92.5075 37.8781 92.8005 36.8247 92.8005 35.3822C92.8005 33.9311 92.5119 32.882 91.9346 32.2351C91.3661 31.5795 90.4477 31.2516 89.1795 31.2516H88.0643V38.4245C88.0643 38.7392 88.0906 38.9796 88.1431 39.1457C88.2043 39.303 88.3136 39.4079 88.471 39.4604C88.6285 39.5129 88.8646 39.5391 89.1795 39.5391Z" fill="white"/>
<path d="M95.7974 40.0374V39.526C96.3309 39.5172 96.6982 39.4473 96.8994 39.3162C97.1006 39.1763 97.2011 38.9315 97.2011 38.5818V34.9364C97.2011 34.5255 97.0918 34.237 96.8732 34.0709C96.6632 33.8961 96.3046 33.7999 95.7974 33.7825V33.271C95.9985 33.2798 96.1866 33.2885 96.3615 33.2973C96.5452 33.306 96.7376 33.3104 96.9387 33.3104C97.5597 33.3104 98.1239 33.2492 98.6312 33.1268V38.5031C98.6312 38.8703 98.7624 39.1326 99.0247 39.2899C99.2871 39.4385 99.742 39.5172 100.389 39.526V40.0374C100.232 40.0286 100.017 40.0243 99.7463 40.0243C99.4752 40.0155 99.1822 40.0068 98.8673 39.998C98.5525 39.9893 98.242 39.9849 97.9358 39.9849C97.5073 39.9849 97.0918 39.9937 96.6895 40.0111C96.2959 40.0199 95.9985 40.0286 95.7974 40.0374ZM101.032 35.4871C100.831 35.4871 100.669 35.4347 100.547 35.3298C100.424 35.2161 100.363 35.0719 100.363 34.8971C100.363 34.7747 100.385 34.6698 100.429 34.5824C100.481 34.4862 100.529 34.3944 100.573 34.307C100.617 34.2196 100.638 34.1365 100.638 34.0578C100.638 33.8742 100.507 33.7825 100.245 33.7825C100.044 33.7825 99.8294 33.8349 99.602 33.9398C99.3834 34.036 99.1822 34.1715 98.9985 34.3463C98.8148 34.5124 98.6793 34.7047 98.5918 34.9233L98.5524 34.3725C98.7886 33.9704 99.0903 33.6557 99.4577 33.4284C99.825 33.2011 100.21 33.0875 100.612 33.0875C101.023 33.0875 101.347 33.2055 101.583 33.4415C101.828 33.6776 101.95 33.9923 101.95 34.3857C101.95 34.7179 101.863 34.9845 101.688 35.1856C101.522 35.3866 101.303 35.4871 101.032 35.4871Z" fill="white"/>
<path d="M110.954 40.221C110.097 40.221 109.349 40.0286 108.711 39.644C108.072 39.2506 107.578 38.7042 107.228 38.0049C106.878 37.2968 106.704 36.4663 106.704 35.5134C106.704 34.5343 106.887 33.6732 107.255 32.9301C107.622 32.187 108.134 31.6101 108.79 31.1992C109.446 30.7796 110.206 30.5698 111.072 30.5698C111.483 30.5698 111.842 30.6135 112.148 30.7009C112.454 30.7796 112.717 30.8801 112.935 31.0025C113.163 31.1161 113.355 31.2167 113.513 31.3041C113.679 31.3828 113.827 31.4221 113.959 31.4221C114.09 31.4221 114.19 31.3609 114.26 31.2385C114.33 31.1074 114.383 30.9063 114.418 30.6353H114.943C114.934 30.8888 114.925 31.1642 114.916 31.4614C114.908 31.7499 114.899 32.104 114.89 32.5236C114.89 32.9432 114.89 33.4634 114.89 34.0841H114.365C114.269 33.4809 114.081 32.9563 113.801 32.5105C113.521 32.0646 113.167 31.7193 112.739 31.4746C112.319 31.2298 111.842 31.1074 111.308 31.1074C110.679 31.1074 110.141 31.2779 109.695 31.6188C109.249 31.9597 108.908 32.4537 108.671 33.1006C108.435 33.7387 108.317 34.5124 108.317 35.4216C108.317 36.7766 108.58 37.83 109.104 38.5818C109.629 39.3336 110.359 39.7095 111.295 39.7095C111.715 39.7095 112.078 39.644 112.384 39.5129C112.699 39.3817 112.94 39.1981 113.106 38.9621C113.281 38.7261 113.368 38.4507 113.368 38.136V37.1394C113.368 36.8859 113.329 36.6935 113.25 36.5624C113.171 36.4313 113.023 36.3395 112.804 36.287C112.594 36.2258 112.284 36.1865 111.873 36.169V35.6707C112.056 35.6795 112.323 35.6882 112.673 35.697C113.032 35.7057 113.447 35.7101 113.919 35.7101C114.357 35.7101 114.733 35.7057 115.048 35.697C115.371 35.6882 115.655 35.6795 115.9 35.6707V36.169C115.62 36.1865 115.406 36.2258 115.257 36.287C115.118 36.3482 115.021 36.4575 114.969 36.6149C114.916 36.7635 114.89 36.9908 114.89 37.2967V40.1161H114.392C114.348 39.8975 114.291 39.7401 114.221 39.644C114.151 39.5478 114.046 39.4997 113.906 39.4997C113.766 39.4997 113.604 39.5347 113.421 39.6046C113.246 39.6746 113.045 39.762 112.817 39.8669C112.59 39.9631 112.323 40.0461 112.017 40.1161C111.72 40.186 111.365 40.221 110.954 40.221Z" fill="white"/>
<path d="M117.087 40.0374V39.526C117.621 39.5172 117.988 39.4473 118.189 39.3162C118.391 39.1763 118.491 38.9315 118.491 38.5818V34.9364C118.491 34.5255 118.382 34.237 118.163 34.0709C117.953 33.8961 117.595 33.7999 117.087 33.7825V33.271C117.288 33.2798 117.477 33.2885 117.651 33.2973C117.835 33.306 118.028 33.3104 118.229 33.3104C118.85 33.3104 119.414 33.2492 119.921 33.1268V38.5031C119.921 38.8703 120.052 39.1326 120.315 39.2899C120.577 39.4385 121.032 39.5172 121.679 39.526V40.0374C121.522 40.0286 121.307 40.0243 121.036 40.0243C120.765 40.0155 120.472 40.0068 120.157 39.998C119.842 39.9893 119.532 39.9849 119.226 39.9849C118.797 39.9849 118.382 39.9937 117.979 40.0111C117.586 40.0199 117.288 40.0286 117.087 40.0374ZM122.322 35.4871C122.121 35.4871 121.959 35.4347 121.837 35.3298C121.714 35.2161 121.653 35.0719 121.653 34.8971C121.653 34.7747 121.675 34.6698 121.718 34.5824C121.771 34.4862 121.819 34.3944 121.863 34.307C121.907 34.2196 121.928 34.1365 121.928 34.0578C121.928 33.8742 121.797 33.7825 121.535 33.7825C121.334 33.7825 121.119 33.8349 120.892 33.9398C120.673 34.036 120.472 34.1715 120.288 34.3463C120.105 34.5124 119.969 34.7047 119.882 34.9233L119.842 34.3725C120.079 33.9704 120.38 33.6557 120.748 33.4284C121.115 33.2011 121.5 33.0875 121.902 33.0875C122.313 33.0875 122.637 33.2055 122.873 33.4415C123.118 33.6776 123.24 33.9923 123.24 34.3857C123.24 34.7179 123.153 34.9845 122.978 35.1856C122.812 35.3866 122.593 35.4871 122.322 35.4871Z" fill="white"/>
<path d="M127.548 40.221C126.927 40.221 126.371 40.0942 125.882 39.8407C125.401 39.5872 125.016 39.1981 124.727 38.6736C124.447 38.1491 124.307 37.4803 124.307 36.6673C124.307 35.8456 124.447 35.1724 124.727 34.6479C125.016 34.1147 125.405 33.7213 125.895 33.4677C126.384 33.2142 126.936 33.0875 127.548 33.0875C128.169 33.0875 128.72 33.2142 129.201 33.4677C129.682 33.7213 130.062 34.1147 130.342 34.6479C130.631 35.1724 130.775 35.8456 130.775 36.6673C130.775 37.4803 130.631 38.1491 130.342 38.6736C130.062 39.1981 129.682 39.5872 129.201 39.8407C128.72 40.0942 128.169 40.221 127.548 40.221ZM127.548 39.7095C128.038 39.7095 128.444 39.4691 128.768 38.9883C129.091 38.5075 129.253 37.7338 129.253 36.6673C129.253 35.5921 129.091 34.814 128.768 34.3332C128.444 33.8436 128.038 33.5989 127.548 33.5989C127.049 33.5989 126.638 33.8436 126.315 34.3332C125.991 34.814 125.829 35.5921 125.829 36.6673C125.829 37.7338 125.991 38.5075 126.315 38.9883C126.638 39.4691 127.049 39.7095 127.548 39.7095Z" fill="white"/>
<path d="M135.644 40.221C135.005 40.221 134.45 40.0811 133.978 39.8013C133.514 39.5128 133.155 39.1063 132.902 38.5818C132.648 38.0486 132.521 37.4191 132.521 36.6935C132.521 35.9505 132.652 35.3123 132.915 34.779C133.186 34.237 133.562 33.8218 134.043 33.5333C134.533 33.2361 135.115 33.0875 135.788 33.0875C136.278 33.0875 136.711 33.1661 137.087 33.3235C137.472 33.4721 137.773 33.6776 137.992 33.9398C138.211 34.1933 138.32 34.4906 138.32 34.8315C138.32 35.1375 138.224 35.391 138.031 35.5921C137.848 35.7844 137.607 35.8805 137.31 35.8805C137.082 35.8805 136.894 35.8193 136.746 35.697C136.606 35.5746 136.536 35.4172 136.536 35.2249C136.536 35.05 136.575 34.8971 136.654 34.7659C136.741 34.6348 136.824 34.5168 136.903 34.4119C136.991 34.2982 137.034 34.1846 137.034 34.0709C137.034 33.9311 136.947 33.8218 136.772 33.7431C136.597 33.6557 136.365 33.612 136.077 33.612C135.429 33.612 134.926 33.8655 134.568 34.3725C134.218 34.8796 134.043 35.6008 134.043 36.5362C134.043 37.4716 134.214 38.1884 134.555 38.6867C134.905 39.185 135.408 39.4342 136.064 39.4342C136.483 39.4342 136.851 39.3249 137.166 39.1063C137.489 38.8791 137.756 38.5425 137.966 38.0966L138.438 38.372C138.211 38.9577 137.852 39.4123 137.362 39.7358C136.881 40.0592 136.308 40.221 135.644 40.221Z" fill="white"/>
<path d="M144.173 40.0374V39.526C144.532 39.5172 144.776 39.4473 144.908 39.3162C145.048 39.1763 145.118 38.9315 145.118 38.5818V35.4478C145.118 34.9145 145.013 34.5124 144.803 34.2414C144.593 33.9704 144.278 33.8349 143.858 33.8349C143.517 33.8349 143.202 33.9311 142.914 34.1234C142.625 34.307 142.371 34.578 142.153 34.9364L142.166 34.3594C142.384 33.9573 142.69 33.647 143.084 33.4284C143.486 33.2011 143.932 33.0875 144.422 33.0875C145.104 33.0875 145.629 33.3016 145.997 33.73C146.373 34.1584 146.561 34.7703 146.561 35.5658V38.5818C146.561 38.9315 146.661 39.1763 146.863 39.3162C147.064 39.4473 147.431 39.5172 147.965 39.526V40.0374C147.833 40.0286 147.65 40.0243 147.414 40.0243C147.186 40.0155 146.932 40.0068 146.653 39.998C146.381 39.9893 146.119 39.9849 145.865 39.9849C145.533 39.9849 145.205 39.9937 144.881 40.0111C144.567 40.0199 144.33 40.0286 144.173 40.0374ZM139.397 40.0374V39.526C139.931 39.5172 140.298 39.4473 140.5 39.3162C140.701 39.1763 140.801 38.9315 140.801 38.5818V31.5795C140.801 31.1686 140.696 30.8801 140.486 30.714C140.277 30.5392 139.914 30.443 139.397 30.4255V29.9141C139.581 29.9229 139.765 29.9316 139.949 29.9403C140.132 29.9491 140.32 29.9534 140.513 29.9534C140.828 29.9534 141.129 29.9403 141.418 29.9141C141.707 29.8791 141.978 29.8311 142.231 29.7699V38.5818C142.231 38.9315 142.297 39.1763 142.428 39.3162C142.568 39.4473 142.817 39.5172 143.176 39.526V40.0374C143.001 40.0286 142.76 40.0199 142.454 40.0111C142.148 39.9937 141.833 39.9849 141.51 39.9849C141.134 39.9849 140.744 39.9937 140.342 40.0111C139.949 40.0199 139.634 40.0286 139.397 40.0374Z" fill="white"/>
<path d="M152.209 40.221C151.571 40.221 151.015 40.0811 150.543 39.8013C150.071 39.5128 149.703 39.102 149.441 38.5687C149.187 38.0354 149.061 37.406 149.061 36.6804C149.061 35.9374 149.192 35.2992 149.454 34.7659C149.716 34.2239 150.093 33.8087 150.582 33.5202C151.072 33.2317 151.649 33.0875 152.314 33.0875C152.9 33.0875 153.403 33.2011 153.823 33.4284C154.243 33.647 154.562 33.9923 154.781 34.4643C154.999 34.9364 155.1 35.5483 155.082 36.3002H150.044L150.031 35.8019H153.679C153.687 35.3822 153.644 35.0063 153.547 34.6741C153.451 34.3419 153.294 34.0797 153.075 33.8874C152.865 33.695 152.594 33.5989 152.262 33.5989C151.842 33.5989 151.47 33.7868 151.147 34.1627C150.832 34.5299 150.644 35.1156 150.582 35.9199L150.609 35.9592C150.6 36.0466 150.591 36.1428 150.582 36.2477C150.582 36.3439 150.582 36.4531 150.582 36.5755C150.582 37.476 150.757 38.1797 151.107 38.6867C151.466 39.185 151.973 39.4342 152.629 39.4342C153.066 39.4342 153.451 39.3249 153.784 39.1063C154.125 38.8878 154.409 38.5512 154.636 38.0966L155.095 38.372C154.859 38.9577 154.488 39.4123 153.98 39.7358C153.482 40.0592 152.891 40.221 152.209 40.221Z" fill="white"/>
<path d="M159.92 40.221C159.282 40.221 158.727 40.0811 158.254 39.8013C157.791 39.5128 157.432 39.1063 157.178 38.5818C156.925 38.0486 156.798 37.4191 156.798 36.6935C156.798 35.9505 156.929 35.3123 157.192 34.779C157.463 34.237 157.839 33.8218 158.32 33.5333C158.81 33.2361 159.391 33.0875 160.065 33.0875C160.554 33.0875 160.987 33.1661 161.364 33.3235C161.748 33.4721 162.05 33.6776 162.269 33.9398C162.487 34.1933 162.597 34.4906 162.597 34.8315C162.597 35.1375 162.501 35.391 162.308 35.5921C162.124 35.7844 161.884 35.8805 161.587 35.8805C161.359 35.8805 161.171 35.8193 161.022 35.697C160.882 35.5746 160.813 35.4172 160.813 35.2249C160.813 35.05 160.852 34.8971 160.931 34.7659C161.018 34.6348 161.101 34.5168 161.18 34.4119C161.267 34.2982 161.311 34.1846 161.311 34.0709C161.311 33.9311 161.224 33.8218 161.049 33.7431C160.874 33.6557 160.642 33.612 160.353 33.612C159.706 33.612 159.203 33.8655 158.845 34.3725C158.495 34.8796 158.32 35.6008 158.32 36.5362C158.32 37.4716 158.49 38.1884 158.831 38.6867C159.181 39.185 159.684 39.4342 160.34 39.4342C160.76 39.4342 161.127 39.3249 161.442 39.1063C161.766 38.8791 162.033 38.5425 162.243 38.0966L162.715 38.372C162.487 38.9577 162.129 39.4123 161.639 39.7358C161.158 40.0592 160.585 40.221 159.92 40.221Z" fill="white"/>
<path d="M163.674 40.0374V39.526C164.208 39.4997 164.575 39.4211 164.776 39.2899C164.977 39.1588 165.078 38.9228 165.078 38.5818V31.5795C165.078 31.1598 164.973 30.867 164.763 30.7009C164.553 30.5261 164.19 30.4343 163.674 30.4255V29.901C163.867 29.9097 164.055 29.9185 164.238 29.9272C164.422 29.936 164.606 29.9403 164.789 29.9403C165.402 29.9403 165.974 29.8791 166.508 29.7568V38.5818C166.508 38.9228 166.574 39.1588 166.705 39.2899C166.845 39.4211 167.098 39.4997 167.466 39.526V40.0374C167.282 40.0286 167.033 40.0199 166.718 40.0111C166.412 39.9937 166.101 39.9849 165.786 39.9849C165.402 39.9849 165.004 39.9937 164.593 40.0111C164.19 40.0199 163.884 40.0286 163.674 40.0374ZM168.542 40.0374V39.526C168.891 39.491 169.106 39.4167 169.184 39.303C169.272 39.1894 169.254 39.0014 169.132 38.7392L168.581 37.559C168.423 37.2181 168.249 36.982 168.056 36.8509C167.872 36.7198 167.614 36.6542 167.282 36.6542H166.285V36.1428H167.426C167.706 36.1428 167.942 36.0991 168.135 36.0117C168.327 35.9243 168.507 35.7713 168.673 35.5527L168.974 35.1331C169.123 34.9408 169.215 34.7659 169.25 34.6086C169.294 34.4512 169.276 34.3157 169.197 34.2021C169.128 34.0797 168.996 33.9835 168.804 33.9136C168.611 33.8436 168.362 33.8043 168.056 33.7956V33.2842C168.31 33.2929 168.594 33.3016 168.909 33.3104C169.232 33.3191 169.582 33.3235 169.958 33.3235C170.195 33.3235 170.413 33.3235 170.614 33.3235C170.816 33.3148 171.004 33.3104 171.179 33.3104C171.362 33.3016 171.537 33.2929 171.703 33.2842V33.7956C171.38 33.8568 171.104 33.9354 170.877 34.0316C170.649 34.1278 170.444 34.2545 170.26 34.4119C170.085 34.5605 169.906 34.7572 169.722 35.002L168.725 36.3395L168.437 36.0248C168.708 36.051 168.935 36.1122 169.119 36.2084C169.311 36.3045 169.477 36.4488 169.617 36.6411C169.766 36.8334 169.915 37.0957 170.063 37.4279L170.549 38.4114C170.68 38.6911 170.816 38.9097 170.956 39.067C171.095 39.2156 171.266 39.3249 171.467 39.3948C171.668 39.456 171.926 39.4997 172.241 39.526V40.0374C171.926 40.0286 171.655 40.0243 171.428 40.0243C171.209 40.0155 171.012 40.0111 170.837 40.0111C170.671 40.0024 170.501 39.998 170.326 39.998C170.063 39.998 169.801 40.0024 169.539 40.0111C169.285 40.0111 168.953 40.0199 168.542 40.0374Z" fill="white"/>
<path d="M175.194 40.221C174.608 40.221 174.14 40.068 173.79 39.762C173.449 39.456 173.278 39.0408 173.278 38.5163C173.278 38.1141 173.375 37.7863 173.567 37.5328C173.76 37.2793 174.009 37.0782 174.315 36.9296C174.63 36.7722 174.958 36.6455 175.299 36.5493C175.64 36.4444 175.964 36.3526 176.27 36.2739C176.576 36.1865 176.825 36.0816 177.018 35.9592C177.21 35.8368 177.306 35.6795 177.306 35.4871V34.8577C177.306 34.4468 177.188 34.1365 176.952 33.9267C176.725 33.7169 176.379 33.612 175.915 33.612C175.583 33.612 175.303 33.6601 175.076 33.7562C174.857 33.8524 174.748 33.9704 174.748 34.1103C174.748 34.1977 174.778 34.2895 174.84 34.3857C174.901 34.4818 174.962 34.5867 175.023 34.7004C175.085 34.814 175.115 34.9364 175.115 35.0675C175.115 35.2424 175.045 35.3866 174.905 35.5003C174.774 35.6052 174.599 35.6576 174.381 35.6576C174.127 35.6576 173.921 35.5789 173.764 35.4216C173.615 35.2642 173.541 35.0544 173.541 34.7922C173.541 34.46 173.663 34.1671 173.908 33.9136C174.153 33.6601 174.49 33.459 174.918 33.3104C175.347 33.1618 175.828 33.0875 176.362 33.0875C176.921 33.0875 177.376 33.1705 177.726 33.3366C178.076 33.5027 178.329 33.765 178.487 34.1234C178.653 34.4731 178.736 34.9364 178.736 35.5134V38.949C178.736 39.1588 178.771 39.3118 178.841 39.4079C178.911 39.4954 179.02 39.5391 179.169 39.5391C179.3 39.5391 179.436 39.5085 179.576 39.4473C179.716 39.3774 179.856 39.2899 179.996 39.185L180.232 39.6046C180.004 39.8057 179.76 39.9587 179.497 40.0636C179.235 40.1685 178.937 40.221 178.605 40.221C177.748 40.221 177.315 39.845 177.306 39.0932C177.053 39.4691 176.751 39.7533 176.401 39.9456C176.051 40.1292 175.649 40.221 175.194 40.221ZM175.811 39.3686C176.099 39.3686 176.37 39.2987 176.624 39.1588C176.886 39.0189 177.114 38.8091 177.306 38.5294V36.169C177.219 36.3089 177.074 36.4269 176.873 36.5231C176.681 36.6192 176.462 36.7154 176.217 36.8116C175.981 36.899 175.749 37.0039 175.522 37.1263C175.295 37.2487 175.106 37.406 174.958 37.5984C174.809 37.7819 174.735 38.0223 174.735 38.3196C174.735 38.6518 174.827 38.9097 175.01 39.0932C175.203 39.2768 175.469 39.3686 175.811 39.3686Z" fill="white"/>
<path d="M12.5237 11.3193L25.3343 21.6527L21.1663 13.8761L18.8499 6.93034C17.8292 3.86974 13.7944 3.20531 11.8453 5.77685C10.5361 7.50411 10.8365 9.95844 12.5237 11.3193Z" fill="#CE91C8"/>
<path d="M40.9237 11.3192L28.1131 21.6525L32.2812 13.876L34.5975 6.93021C35.6182 3.86961 39.653 3.20519 41.6021 5.77673C42.9113 7.50399 42.6109 9.95832 40.9237 11.3192Z" fill="#CE91C8"/>
<path d="M15.738 25.0979L15.8867 24.6522L25.0009 29.7625C25.0009 34.6943 20.1835 38.6103 17.253 34.6426C15.3178 32.0225 14.5969 28.5198 15.738 25.0979Z" fill="#CE91C8"/>
<path d="M37.8205 25.3201L37.6719 24.8744L28.5577 29.9847C28.5577 34.9165 33.375 38.8325 36.3056 34.8648C38.2407 32.2447 38.9617 28.742 37.8205 25.3201Z" fill="#CE91C8"/>
<path d="M26.1692 3.36558C24.0953 3.79809 22.9931 6.07493 23.9239 7.99269C24.2097 8.56394 24.969 9.2576 25.5732 9.49426C26.259 9.76356 27.2551 9.76356 27.9573 9.49426C28.6594 9.22495 29.3453 8.58842 29.6963 7.87028C29.9495 7.36432 29.9658 7.26639 29.9658 6.50744C29.9658 5.71586 29.9494 5.65873 29.6555 5.05484C29.4024 4.54888 29.2473 4.34486 28.8799 4.05108C28.6268 3.85522 28.2267 3.61856 27.9899 3.52879C27.4755 3.3411 26.6672 3.26765 26.1692 3.36558ZM27.745 4.5244C28.1695 4.71209 28.5206 5.063 28.7982 5.59345C29.0513 6.08309 29.0513 6.94812 28.7982 7.42144C28.3818 8.22119 27.7531 8.65371 26.9122 8.72715C25.7528 8.83324 24.6424 7.82948 24.5934 6.64618C24.5526 5.5608 25.2874 4.61416 26.3896 4.35302C26.7815 4.25509 27.2469 4.32038 27.745 4.5244Z" fill="#2D2D2D"/>
<path d="M15.4897 10.9355C15.3101 11.0579 15.253 11.4007 15.3836 11.6047C15.4163 11.6618 16.0368 12.0045 16.7634 12.3555C19.9803 13.9386 22.1277 15.8646 24.1443 18.9656C24.6342 19.7164 25.5078 21.422 25.7773 22.1483C26.0304 22.8175 26.0141 22.8093 26.855 22.7848L27.5898 22.7603L27.745 22.3523C28.0307 21.6097 28.839 20.002 29.3861 19.1043C31.2313 16.0686 33.8685 13.7101 37.0936 12.2167C37.5263 12.0209 37.9672 11.8087 38.0733 11.7597C38.2693 11.67 38.3836 11.3762 38.3101 11.1803C38.2856 11.115 38.1632 11.0008 38.0489 10.9192C37.8529 10.7886 37.8202 10.7968 37.2079 11.0497C32.7581 12.8941 29.0758 16.6561 27.1081 21.3485C26.9857 21.6586 26.855 21.9035 26.8305 21.9035C26.7979 21.9035 26.6182 21.5444 26.4141 21.1037C25.6385 19.3981 24.5117 17.5701 23.4422 16.2889C22.2583 14.8771 20.4131 13.2613 18.9026 12.331C18.2086 11.9066 15.9633 10.8049 15.7918 10.8049C15.7265 10.8049 15.5877 10.862 15.4897 10.9355Z" fill="#2D2D2D"/>
<path d="M13.3016 16.3868C13.2118 16.4521 12.9505 16.9009 12.7137 17.3906C10.3133 22.442 10.8767 27.9505 14.265 32.5368C14.8692 33.3447 15.751 34.2669 16.7389 35.1238C17.6289 35.8909 18.7964 36.6906 18.9679 36.658C19.172 36.6172 19.3925 36.2499 19.3435 36.0378C19.3108 35.9317 18.8618 35.54 18.2167 35.0503C17.2207 34.2995 15.9061 33.0591 15.3019 32.3083C13.9711 30.6435 12.8607 28.2525 12.4361 26.1225C12.1912 24.8902 12.1749 22.5971 12.4035 21.373C12.6158 20.1897 13.0322 18.9656 13.5955 17.8557C13.865 17.3253 14.0854 16.8193 14.0854 16.7377C14.0854 16.5582 13.7996 16.2726 13.6118 16.2726C13.5302 16.2726 13.3914 16.3215 13.3016 16.3868Z" fill="#2D2D2D"/>
<path d="M39.592 16.4765C39.4614 16.6805 39.4695 16.7131 39.8696 17.5619C40.6534 19.2103 41.0535 20.4344 41.2658 21.8217C41.7638 24.9799 40.9555 28.3666 39.0123 31.2881C37.9917 32.8305 36.6854 34.1525 35.0198 35.3277C34.2686 35.8663 34.1053 36.0785 34.2604 36.3559C34.3992 36.6252 34.636 36.6905 34.93 36.5518C35.3219 36.3723 36.6772 35.3358 37.4529 34.6259C39.5022 32.7571 41.2086 29.9416 41.8945 27.3057C42.7354 24.0414 42.3762 20.5405 40.8657 17.3986C40.6371 16.9172 40.3922 16.4683 40.3268 16.3949C40.1227 16.199 39.7471 16.2398 39.592 16.4765Z" fill="#2D2D2D"/>
<path d="M20.4376 21.9606C20.1436 22.3115 20.1845 22.4829 20.6825 22.9154C22.6747 24.621 23.9239 26.5714 24.5363 28.9624C24.8139 30.0315 25.0261 31.125 24.9527 31.125C24.9282 31.125 24.7077 30.7496 24.4709 30.2845C23.3116 28.0403 21.0907 25.9348 18.4127 24.5312C16.8533 23.7233 16.4205 23.6254 16.2164 24.0742C16.0694 24.4006 16.1756 24.5638 16.641 24.776C19.6129 26.0899 21.6051 27.6486 23.0013 29.7377C23.532 30.5375 24.226 31.9737 24.4954 32.8388C24.9037 34.1445 25.0261 35.189 25.0261 37.2945V39.2041H18.1923C14.4283 39.2041 11.3094 39.2368 11.2604 39.2694C11.1543 39.3347 10.9828 39.6448 10.9828 39.7672C10.9828 39.8162 11.0563 39.9304 11.1461 40.0202C11.3094 40.1834 11.4156 40.1834 18.1678 40.1834H25.0261V40.469C25.0261 40.6322 25.0833 40.8852 25.1404 41.0403C25.2466 41.2932 25.3037 41.3259 25.5487 41.3259C26.0712 41.3259 26.0876 41.2524 26.0794 38.7145C26.0794 37.4822 26.0467 35.2054 26.0059 33.6548C25.9324 30.4559 25.8263 29.6806 25.2629 27.9913C24.5281 25.7879 23.3605 23.9763 21.7521 22.5481C20.903 21.7892 20.6743 21.6913 20.4376 21.9606Z" fill="#2D2D2D"/>
<path d="M32.2764 22.1645C31.6069 22.6868 30.57 23.7967 29.974 24.6209C28.9779 26.0164 28.341 27.5343 27.9328 29.4602C27.5899 31.0923 27.5572 31.7778 27.5572 36.5518C27.5572 40.9749 27.5572 41.081 27.7205 41.2442C27.9246 41.4482 28.0553 41.4483 28.3247 41.2361C28.5043 41.0892 28.537 41.0076 28.537 40.624V40.1833H35.4198C41.9924 40.1833 42.319 40.1752 42.4415 40.0364C42.613 39.8488 42.6211 39.6203 42.4497 39.3836L42.3272 39.2041H28.5206L28.5615 37.0986C28.6023 34.8055 28.6921 34.12 29.1167 32.7734C29.6964 30.9454 30.6516 29.4112 32.1295 27.9341C33.2725 26.7835 34.1543 26.1714 35.9179 25.2901C37.2406 24.6291 37.3957 24.5311 37.4202 24.3353C37.461 24.0089 37.1671 23.7477 36.8323 23.813C36.3833 23.9028 34.4401 24.8984 33.4521 25.5431C31.7375 26.6692 30.0719 28.5054 29.035 30.4068C28.8391 30.7577 28.6758 31.0434 28.6594 31.0434C28.6431 31.0434 28.6513 30.8883 28.6758 30.6925C28.7574 29.9498 28.9779 29.0114 29.2473 28.2279C29.9658 26.1633 30.8802 24.7596 32.3989 23.3968C33.4276 22.4665 33.5175 22.3114 33.1909 21.985C32.9541 21.7483 32.7663 21.781 32.2764 22.1645Z" fill="#2D2D2D"/>
<path d="M8.25582 43.5537C8.04354 43.7088 8.05986 44.1005 8.28848 44.28C8.4681 44.4188 8.77019 44.4269 14.7141 44.4106C20.7887 44.3861 20.9601 44.378 21.0744 44.2311C21.2296 44.0107 21.2214 43.7414 21.0418 43.5864C20.903 43.4558 20.3396 43.4476 14.6488 43.4476C9.58667 43.4476 8.37012 43.4721 8.25582 43.5537Z" fill="#2D2D2D"/>
<path d="M32.505 43.6272C32.3336 43.872 32.3417 44.0679 32.5377 44.2637C32.701 44.4269 32.8071 44.4269 38.9388 44.4269C44.5072 44.4269 45.193 44.4106 45.3073 44.2964C45.4624 44.1495 45.4788 43.6843 45.34 43.5456C45.2665 43.4721 43.7315 43.4477 38.9388 43.4477H32.6275L32.505 43.6272Z" fill="#2D2D2D"/>
<path d="M49.7871 13.5984C49.7871 15.2857 48.4186 16.6535 46.7305 16.6535C45.0424 16.6535 43.6739 15.2857 43.6739 13.5984C43.6739 11.9111 45.0424 10.5433 46.7305 10.5433C48.4186 10.5433 49.7871 11.9111 49.7871 13.5984Z" fill="#DDBEDA"/>
<path d="M9.77352 13.5984C9.77352 15.2857 8.40504 16.6535 6.71693 16.6535C5.02882 16.6535 3.66034 15.2857 3.66034 13.5984C3.66034 11.9111 5.02882 10.5433 6.71693 10.5433C8.40504 10.5433 9.77352 11.9111 9.77352 13.5984Z" fill="#DDBEDA"/>
<path d="M3.89021 25.6394C3.89021 26.7131 3.01935 27.5835 1.9451 27.5835C0.870852 27.5835 0 26.7131 0 25.6394C0 24.5657 0.870852 23.6952 1.9451 23.6952C3.01935 23.6952 3.89021 24.5657 3.89021 25.6394Z" fill="#836A81"/>
<path d="M54.3216 25.6394C54.3216 26.7131 53.4507 27.5835 52.3765 27.5835C51.3022 27.5835 50.4314 26.7131 50.4314 25.6394C50.4314 24.5657 51.3022 23.6952 52.3765 23.6952C53.4507 23.6952 54.3216 24.5657 54.3216 25.6394Z" fill="#836A81"/>
<path d="M50.6005 36.0949C50.6005 36.7085 50.1028 37.2058 49.489 37.2058C48.8751 37.2058 48.3775 36.7085 48.3775 36.0949C48.3775 35.4813 48.8751 34.984 49.489 34.984C50.1028 34.984 50.6005 35.4813 50.6005 36.0949Z" fill="#836A81"/>
<path d="M5.77469 36.0949C5.77469 36.7085 5.27706 37.2058 4.6632 37.2058C4.04935 37.2058 3.55172 36.7085 3.55172 36.0949C3.55172 35.4813 4.04935 34.984 4.6632 34.984C5.27706 34.984 5.77469 35.4813 5.77469 36.0949Z" fill="#836A81"/>
</svg>
