<svg width="463" height="101" viewBox="0 0 463 101" fill="none" xmlns="http://www.w3.org/2000/svg">
<path d="M51.5 15.571C74.5614 -7.72296 102.75 9.87537 102.75 40.03C102.75 58.0813 82.1506 77.1724 67.0713 88.7292C60.2449 93.9613 56.8315 96.5769 51.5 96.5769C46.1685 96.5769 42.755 93.9613 35.9287 88.7292C20.8494 77.1724 0.25 58.0806 0.25 40.03C0.250215 9.87531 28.4385 -7.72292 51.5 15.571ZM99.0332 43.0408C97.6143 43.5383 95.9105 44.1794 94.0439 44.9714C88.7778 47.2061 82.3255 50.5919 77.2969 55.2371C74.8523 57.4952 72.1034 61.2084 69.3242 65.6277C66.5631 70.0184 63.84 74.9951 61.4316 79.6931C59.0251 84.3876 56.9431 88.7845 55.4619 92.0085C55.404 92.1346 55.3471 92.2592 55.291 92.3816C57.664 91.4542 60.3102 89.5013 64.9424 85.9509L66.3516 84.8611C73.4627 79.3101 81.4989 72.2556 87.8721 64.5789C93.8735 57.3498 98.0616 49.9699 99.0332 43.0408ZM4.02051 43.3953C5.08296 50.221 9.22866 57.4729 15.1279 64.5789C21.926 72.7674 30.6164 80.2479 38.0576 85.9509L40.5078 87.8162C43.6505 90.1808 45.7361 91.5948 47.6357 92.3523C47.5392 92.146 47.4415 91.9339 47.3398 91.7175C45.7437 88.3213 43.5227 83.7179 41.0234 78.8845C38.522 74.0469 35.7531 69.0007 33.0596 64.7107C30.332 60.3665 27.7916 56.9792 25.7705 55.2966C21.4473 51.6977 14.9656 48.296 9.45703 45.7654C7.43949 44.8385 5.5726 44.0368 4.02051 43.3953ZM48.2949 17.3259C37.8895 7.26888 27.033 6.52558 18.8643 10.8503C10.3918 15.336 3.91276 25.737 3.75293 39.5085C3.76682 39.5141 3.78095 39.5195 3.79492 39.5251C5.60772 40.2516 8.11973 41.2992 10.918 42.5847C16.4739 45.1371 23.3116 48.696 28.0098 52.6072C30.4994 54.6798 33.291 58.4984 36.0234 62.8503C38.7899 67.2565 41.6096 72.3974 44.1328 77.2771C46.2844 81.4381 48.2267 85.4268 49.75 88.6326V71.7078C49.6698 71.5422 49.5643 71.3232 49.4365 71.0564C49.1249 70.4057 48.6804 69.4688 48.1484 68.3191C47.085 66.0205 45.6678 62.865 44.2559 59.4451C42.8459 56.03 41.4308 52.3258 40.3789 48.9343C39.3448 45.6001 38.5958 42.3695 38.6572 39.9851C38.7186 37.6033 39.5286 34.8102 40.6006 32.072C41.6861 29.2995 43.102 26.4321 44.4941 23.8582C45.8821 21.292 47.2605 18.9898 48.2949 17.3259ZM84.1357 10.8503C75.9669 6.52552 65.1095 7.26843 54.7041 17.3259C55.7386 18.9898 57.1178 21.2918 58.5059 23.8582C59.898 26.4321 61.3139 29.2995 62.3994 32.072C63.4714 34.8102 64.2814 37.6033 64.3428 39.9851C64.4042 42.3695 63.6552 45.6001 62.6211 48.9343C61.5692 52.3258 60.1541 56.03 58.7441 59.4451C57.3322 62.865 55.915 66.0205 54.8516 68.3191C54.3196 69.4688 53.8751 70.4057 53.5635 71.0564C53.4357 71.3232 53.3302 71.5422 53.25 71.7078V88.4617C54.6326 85.5048 56.3683 81.8985 58.3174 78.0964C60.7513 73.3485 63.5257 68.2735 66.3613 63.7644C69.1788 59.2842 72.1263 55.2492 74.9219 52.6667C80.3738 47.6305 87.2428 44.0556 92.6768 41.7498C95.2629 40.6524 97.5493 39.8326 99.2422 39.2722C99.0115 25.6181 92.5597 15.3103 84.1357 10.8503ZM51.5 20.5466L50.8369 19.8767C49.8931 21.4166 48.7341 23.3769 47.5732 25.5232C46.219 28.0271 44.8748 30.7565 43.8604 33.3474C42.8326 35.9724 42.2018 38.31 42.1562 40.075C42.1108 41.8375 42.696 44.5901 43.7217 47.8972C44.7296 51.147 46.1013 54.7436 47.4912 58.1101C48.261 59.9746 49.0356 61.7602 49.75 63.3689V35.4998H53.25V63.3689C53.9643 61.7602 54.739 59.9746 55.5088 58.1101C56.8987 54.7436 58.2704 51.147 59.2783 47.8972C60.304 44.5901 60.8892 41.8375 60.8438 40.075C60.7982 38.31 60.1674 35.9724 59.1396 33.3474C58.1252 30.7565 56.781 28.0271 55.4268 25.5232C54.2657 23.3767 53.1059 21.4167 52.1621 19.8767L51.5 20.5466Z" fill="#C3AEC1"/>
<path d="M151.911 48.3871C148.589 48.3871 145.685 47.6775 143.202 46.2581C140.75 44.8065 138.847 42.7904 137.492 40.2097C136.137 37.5968 135.46 34.5162 135.46 30.9678C135.46 27.3226 136.169 24.1452 137.589 21.4355C139.008 18.6936 140.992 16.5646 143.54 15.0484C146.089 13.5323 149.056 12.7742 152.444 12.7742C154.121 12.7742 155.556 12.9355 156.75 13.2581C157.944 13.5484 158.96 13.9194 159.798 14.371C160.669 14.7904 161.411 15.1613 162.024 15.4839C162.637 15.7742 163.185 15.9194 163.669 15.9194C164.153 15.9194 164.524 15.6936 164.782 15.242C165.073 14.7904 165.282 14.0484 165.411 13.0162H167.395C167.331 14.0807 167.282 15.1936 167.25 16.3549C167.218 17.4839 167.185 18.8065 167.153 20.3226C167.153 21.8387 167.153 23.7258 167.153 25.9839H165.218C164.927 23.7258 164.266 21.7742 163.234 20.1291C162.234 18.4839 160.944 17.2258 159.363 16.3549C157.815 15.4517 156.056 15 154.089 15C151.766 15 149.782 15.6291 148.137 16.8871C146.524 18.1129 145.282 19.9033 144.411 22.2581C143.573 24.6129 143.153 27.4678 143.153 30.8226C143.153 35.7258 144.056 39.5484 145.863 42.2904C147.702 45.0323 150.266 46.4033 153.556 46.4033C154.847 46.4033 155.96 46.2097 156.895 45.8226C157.831 45.4355 158.54 44.8871 159.024 44.1775C159.54 43.4355 159.798 42.5807 159.798 41.6129V37.2097C159.798 36.1775 159.669 35.4033 159.411 34.8871C159.153 34.3387 158.653 33.9517 157.911 33.7258C157.202 33.5 156.153 33.3549 154.766 33.2904V31.4517C155.411 31.4839 156.411 31.5162 157.766 31.5484C159.153 31.5807 160.831 31.5968 162.798 31.5968C164.54 31.5968 166.04 31.5807 167.298 31.5484C168.589 31.5162 169.653 31.4839 170.492 31.4517V33.2904C169.556 33.3549 168.847 33.5 168.363 33.7258C167.879 33.9517 167.556 34.3549 167.395 34.9355C167.266 35.4839 167.202 36.3226 167.202 37.4517V48H165.266C165.137 47.1291 164.927 46.5162 164.637 46.1613C164.347 45.7742 163.927 45.5807 163.379 45.5807C162.831 45.5807 162.218 45.7258 161.54 46.0162C160.863 46.2742 160.073 46.5968 159.169 46.9839C158.298 47.371 157.266 47.6936 156.073 47.9517C154.911 48.242 153.524 48.3871 151.911 48.3871ZM174.515 47.7097V45.8226C176.225 45.7904 177.419 45.5323 178.096 45.0484C178.773 44.5646 179.112 43.6613 179.112 42.3387V28.8387C179.112 27.3871 178.773 26.3387 178.096 25.6936C177.451 25.0162 176.257 24.6452 174.515 24.5807V22.6936C175.161 22.7258 175.822 22.7581 176.499 22.7904C177.177 22.8226 177.854 22.8387 178.531 22.8387C179.919 22.8387 181.209 22.7904 182.402 22.6936C183.628 22.5646 184.757 22.3871 185.79 22.1613V42.3387C185.79 43.6613 186.128 44.5646 186.806 45.0484C187.483 45.5323 188.677 45.7904 190.386 45.8226V47.7097C189.902 47.6775 189.225 47.6613 188.354 47.6613C187.515 47.6291 186.58 47.5968 185.548 47.5646C184.548 47.5323 183.548 47.5162 182.548 47.5162C181.031 47.5162 179.499 47.5484 177.951 47.6129C176.435 47.6452 175.29 47.6775 174.515 47.7097ZM182.257 17.7097C181.193 17.7097 180.241 17.371 179.402 16.6936C178.596 16.0162 178.193 15.0968 178.193 13.9355C178.193 12.742 178.596 11.8065 179.402 11.1291C180.241 10.4517 181.193 10.1129 182.257 10.1129C183.322 10.1129 184.257 10.4517 185.064 11.1291C185.902 11.8065 186.322 12.7258 186.322 13.8871C186.322 15.0807 185.902 16.0162 185.064 16.6936C184.257 17.371 183.322 17.7097 182.257 17.7097ZM210.355 47.7097V45.8226C211.548 45.7904 212.355 45.5323 212.774 45.0484C213.226 44.5323 213.452 43.6291 213.452 42.3387V30.3387C213.452 28.5968 213.097 27.2904 212.387 26.4194C211.71 25.5484 210.693 25.1129 209.339 25.1129C208.274 25.1129 207.29 25.4194 206.387 26.0323C205.484 26.6452 204.71 27.5323 204.064 28.6936V26.5646C204.871 25.1129 205.968 24 207.355 23.2258C208.774 22.4194 210.387 22.0162 212.193 22.0162C214.774 22.0162 216.742 22.7904 218.097 24.3387C219.452 25.8549 220.129 28.0484 220.129 30.9194V42.3387C220.129 43.6291 220.468 44.5323 221.145 45.0484C221.823 45.5323 223.016 45.7904 224.726 45.8226V47.7097C224.242 47.6775 223.564 47.6613 222.693 47.6613C221.855 47.6291 220.919 47.5968 219.887 47.5646C218.887 47.5323 217.903 47.5162 216.935 47.5162C215.677 47.5162 214.419 47.5484 213.161 47.6129C211.903 47.6452 210.968 47.6775 210.355 47.7097ZM193.032 47.7097V45.8226C194.774 45.7904 195.968 45.5323 196.613 45.0484C197.29 44.5323 197.629 43.6291 197.629 42.3387V28.8387C197.629 27.3226 197.274 26.2581 196.564 25.6452C195.887 25 194.71 24.6452 193.032 24.5807V22.6936C193.71 22.7258 194.387 22.7581 195.064 22.7904C195.742 22.8226 196.435 22.8387 197.145 22.8387C198.532 22.8387 199.823 22.7904 201.016 22.6936C202.21 22.5646 203.306 22.3871 204.306 22.1613V42.3387C204.306 43.6291 204.532 44.5323 204.984 45.0484C205.435 45.5323 206.242 45.7904 207.403 45.8226V47.7097C206.726 47.6775 205.806 47.6452 204.645 47.6129C203.484 47.5484 202.274 47.5162 201.016 47.5162C199.597 47.5162 198.129 47.5484 196.613 47.6129C195.129 47.6452 193.935 47.6775 193.032 47.7097ZM240.121 48.3871C237.701 48.3871 235.588 47.871 233.782 46.8387C232.008 45.7742 230.637 44.2581 229.669 42.2904C228.701 40.3226 228.217 37.9839 228.217 35.2742C228.217 32.4355 228.733 30.0323 229.766 28.0646C230.798 26.0968 232.25 24.5968 234.121 23.5646C235.991 22.5323 238.185 22.0162 240.701 22.0162C242.959 22.0162 244.879 22.4355 246.459 23.2742C248.04 24.0807 249.233 25.3549 250.04 27.0968C250.846 28.8387 251.217 31.0968 251.153 33.871H233.008L232.959 32.0323H245.104C245.137 30.4517 244.991 29.0646 244.669 27.871C244.379 26.6452 243.895 25.6775 243.217 24.9678C242.54 24.2581 241.653 23.9033 240.556 23.9033C239.169 23.9033 237.975 24.5807 236.975 25.9355C236.008 27.2904 235.427 29.4355 235.233 32.371L235.33 32.5646C235.298 32.8549 235.282 33.1775 235.282 33.5323C235.282 33.8871 235.282 34.2904 235.282 34.742C235.282 37.9355 235.879 40.4355 237.072 42.242C238.298 44.0484 240.072 44.9517 242.395 44.9517C243.975 44.9517 245.346 44.5646 246.508 43.7904C247.701 42.9839 248.701 41.7581 249.508 40.1129L251.25 41.0807C250.314 43.4355 248.895 45.242 246.991 46.5C245.088 47.7581 242.798 48.3871 240.121 48.3871ZM254.561 47.7097V45.8226C256.367 45.7258 257.577 45.4355 258.19 44.9517C258.835 44.4678 259.158 43.5968 259.158 42.3387V16.5C259.158 14.9839 258.819 13.9194 258.141 13.3065C257.464 12.6613 256.27 12.3065 254.561 12.242V10.3549C255.432 10.3871 256.19 10.4194 256.835 10.4517C257.48 10.4839 258.109 10.5 258.722 10.5C261.206 10.5 263.577 10.2742 265.835 9.82262V42.3387C265.835 43.5646 266.061 44.4355 266.512 44.9517C266.964 45.4355 267.819 45.7258 269.077 45.8226V47.7097C268.303 47.6775 267.303 47.6452 266.077 47.6129C264.883 47.5484 263.722 47.5162 262.593 47.5162C261.109 47.5162 259.593 47.5484 258.045 47.6129C256.528 47.6452 255.367 47.6775 254.561 47.7097ZM272.27 47.7097V45.8226C273.432 45.6936 274.158 45.4355 274.448 45.0484C274.738 44.6291 274.674 43.9355 274.254 42.9678L272.464 38.371C271.98 37.2097 271.399 36.4033 270.722 35.9517C270.077 35.4678 269.174 35.2258 268.012 35.2258H265.012V33.3387H268.738C269.706 33.3387 270.512 33.1775 271.158 32.8549C271.835 32.5323 272.48 31.9839 273.093 31.2097L274.012 29.9517C274.625 29.242 274.996 28.5807 275.125 27.9678C275.254 27.3226 275.174 26.7581 274.883 26.2742C274.625 25.7904 274.158 25.4033 273.48 25.1129C272.835 24.7904 271.98 24.6129 270.916 24.5807V22.6936C271.916 22.7258 272.996 22.7581 274.158 22.7904C275.319 22.8226 276.593 22.8387 277.98 22.8387C278.787 22.8387 279.545 22.8387 280.254 22.8387C280.964 22.8065 281.674 22.7904 282.383 22.7904C283.093 22.7581 283.835 22.7258 284.609 22.6936V24.5807C283.48 24.8065 282.464 25.1129 281.561 25.5C280.69 25.8871 279.883 26.3871 279.141 27C278.432 27.5807 277.706 28.3387 276.964 29.2742L273.383 33.9194L272.609 32.6129C273.899 32.7097 274.948 32.9517 275.754 33.3387C276.561 33.6936 277.254 34.2742 277.835 35.0807C278.416 35.8549 278.964 36.9355 279.48 38.3226L280.883 41.6613C281.303 42.6613 281.738 43.4517 282.19 44.0323C282.674 44.5807 283.254 45 283.932 45.2904C284.609 45.5484 285.48 45.7258 286.545 45.8226V47.7097C285.48 47.6775 284.512 47.6613 283.641 47.6613C282.803 47.6291 282.012 47.6129 281.27 47.6129C280.561 47.5807 279.835 47.5646 279.093 47.5646C278.028 47.5646 276.964 47.5807 275.899 47.6129C274.867 47.6129 273.658 47.6452 272.27 47.7097ZM301.124 48.3871C298.705 48.3871 296.559 47.9194 294.688 46.9839C292.818 46.0162 291.35 44.5646 290.285 42.6291C289.221 40.6613 288.688 38.1936 288.688 35.2258C288.688 32.2581 289.221 29.7904 290.285 27.8226C291.35 25.8549 292.818 24.4033 294.688 23.4678C296.559 22.5 298.705 22.0162 301.124 22.0162C303.576 22.0162 305.721 22.5 307.559 23.4678C309.398 24.4033 310.85 25.8549 311.914 27.8226C312.979 29.7904 313.511 32.2581 313.511 35.2258C313.511 38.1936 312.979 40.6613 311.914 42.6291C310.85 44.5646 309.398 46.0162 307.559 46.9839C305.721 47.9194 303.576 48.3871 301.124 48.3871ZM301.124 46.5C302.672 46.5 303.947 45.6129 304.947 43.8387C305.979 42.0323 306.495 39.1613 306.495 35.2258C306.495 31.2258 305.979 28.3387 304.947 26.5646C303.947 24.7581 302.672 23.8549 301.124 23.8549C299.543 23.8549 298.253 24.7581 297.253 26.5646C296.253 28.3387 295.753 31.2258 295.753 35.2258C295.753 39.1613 296.253 42.0323 297.253 43.8387C298.253 45.6129 299.543 46.5 301.124 46.5ZM317.2 47.7097V45.8226C318.91 45.7904 320.103 45.5323 320.781 45.0484C321.458 44.5646 321.797 43.6613 321.797 42.3387V16.5C321.797 15.0484 321.458 14 320.781 13.3549C320.135 12.6775 318.942 12.3065 317.2 12.242V10.3549C317.877 10.3871 318.555 10.4194 319.232 10.4517C319.91 10.4839 320.571 10.5 321.216 10.5C322.603 10.5 323.91 10.4517 325.135 10.3549C326.361 10.2258 327.474 10.0484 328.474 9.82262V42.3387C328.474 43.6613 328.813 44.5646 329.49 45.0484C330.2 45.5323 331.393 45.7904 333.071 45.8226V47.7097C332.587 47.6775 331.91 47.6613 331.039 47.6613C330.2 47.6291 329.264 47.5968 328.232 47.5646C327.232 47.5323 326.232 47.5162 325.232 47.5162C323.748 47.5162 322.232 47.5484 320.684 47.6129C319.135 47.6452 317.974 47.6775 317.2 47.7097ZM349.173 48.3871C346.754 48.3871 344.609 47.9194 342.738 46.9839C340.867 46.0162 339.399 44.5646 338.335 42.6291C337.27 40.6613 336.738 38.1936 336.738 35.2258C336.738 32.2581 337.27 29.7904 338.335 27.8226C339.399 25.8549 340.867 24.4033 342.738 23.4678C344.609 22.5 346.754 22.0162 349.173 22.0162C351.625 22.0162 353.77 22.5 355.609 23.4678C357.448 24.4033 358.899 25.8549 359.964 27.8226C361.028 29.7904 361.56 32.2581 361.56 35.2258C361.56 38.1936 361.028 40.6613 359.964 42.6291C358.899 44.5646 357.448 46.0162 355.609 46.9839C353.77 47.9194 351.625 48.3871 349.173 48.3871ZM349.173 46.5C350.722 46.5 351.996 45.6129 352.996 43.8387C354.028 42.0323 354.544 39.1613 354.544 35.2258C354.544 31.2258 354.028 28.3387 352.996 26.5646C351.996 24.7581 350.722 23.8549 349.173 23.8549C347.593 23.8549 346.302 24.7581 345.302 26.5646C344.302 28.3387 343.802 31.2258 343.802 35.2258C343.802 39.1613 344.302 42.0323 345.302 43.8387C346.302 45.6129 347.593 46.5 349.173 46.5ZM376.284 59.2742C372.865 59.2742 370.204 58.7097 368.3 57.5807C366.397 56.4839 365.445 55.0484 365.445 53.2742C365.445 51.7904 366.026 50.5 367.187 49.4033C368.349 48.3065 370.042 47.3871 372.268 46.6452L373.526 47.3226C372.72 47.8065 372.075 48.4839 371.591 49.3549C371.139 50.2258 370.913 51.1775 370.913 52.2097C370.913 53.8871 371.478 55.1775 372.607 56.0807C373.736 56.9839 375.333 57.4355 377.397 57.4355C379.042 57.4355 380.478 57.1613 381.704 56.6129C382.929 56.0968 383.897 55.371 384.607 54.4355C385.316 53.5323 385.671 52.4839 385.671 51.2904C385.671 50.1613 385.3 49.3065 384.558 48.7258C383.849 48.1775 382.768 47.9033 381.316 47.9033H376.187C374.091 47.9033 372.429 47.5 371.204 46.6936C369.978 45.8549 369.365 44.7581 369.365 43.4033C369.365 42.2742 369.752 41.242 370.526 40.3065C371.3 39.3387 372.494 38.4194 374.107 37.5484L375.752 37.742C375.139 38.1613 374.704 38.5807 374.445 39C374.187 39.3871 374.058 39.8065 374.058 40.2581C374.058 40.9033 374.333 41.4033 374.881 41.7581C375.462 42.0807 376.268 42.242 377.3 42.242H382.623C385.429 42.242 387.575 42.8065 389.058 43.9355C390.542 45.0646 391.284 46.7258 391.284 48.9194C391.284 50.9517 390.655 52.742 389.397 54.2904C388.139 55.871 386.381 57.0968 384.123 57.9678C381.897 58.8387 379.284 59.2742 376.284 59.2742ZM377.252 38.0323C374.123 38.0323 371.655 37.3226 369.849 35.9033C368.075 34.4839 367.187 32.5162 367.187 30C367.187 27.5162 368.075 25.5646 369.849 24.1452C371.655 22.7258 374.123 22.0162 377.252 22.0162C380.381 22.0162 382.816 22.7258 384.558 24.1452C386.3 25.5323 387.171 27.4839 387.171 30C387.171 32.5162 386.3 34.4839 384.558 35.9033C382.816 37.3226 380.381 38.0323 377.252 38.0323ZM377.3 36.1936C378.558 36.1936 379.51 35.6936 380.155 34.6936C380.8 33.6613 381.123 32.0968 381.123 30C381.123 27.9033 380.8 26.3549 380.155 25.3549C379.542 24.3226 378.591 23.8065 377.3 23.8065C376.042 23.8065 375.091 24.3226 374.445 25.3549C373.8 26.3549 373.478 27.9033 373.478 30C373.478 32.0968 373.8 33.6613 374.445 34.6936C375.091 35.6936 376.042 36.1936 377.3 36.1936ZM391.478 28.6452C390.833 28.6452 390.349 28.4355 390.026 28.0162C389.736 27.5968 389.494 27.1129 389.3 26.5646C389.139 26.0162 388.962 25.5484 388.768 25.1613C388.575 24.742 388.284 24.5323 387.897 24.5323C387.704 24.5323 387.429 24.6452 387.075 24.871C386.72 25.0646 386.349 25.3549 385.962 25.742C385.607 26.0968 385.268 26.5646 384.945 27.1452L384.123 25.6936C384.8 24.5968 385.704 23.7097 386.833 23.0323C387.962 22.3549 389.123 22.0162 390.316 22.0162C391.381 22.0162 392.236 22.3226 392.881 22.9355C393.526 23.5484 393.849 24.4033 393.849 25.5C393.849 26.4355 393.623 27.1936 393.171 27.7742C392.752 28.3549 392.187 28.6452 391.478 28.6452ZM396.361 47.7097V45.8226C398.071 45.7904 399.264 45.5323 399.942 45.0484C400.619 44.5646 400.958 43.6613 400.958 42.3387V28.8387C400.958 27.3871 400.619 26.3387 399.942 25.6936C399.297 25.0162 398.103 24.6452 396.361 24.5807V22.6936C397.006 22.7258 397.668 22.7581 398.345 22.7904C399.022 22.8226 399.7 22.8387 400.377 22.8387C401.764 22.8387 403.055 22.7904 404.248 22.6936C405.474 22.5646 406.603 22.3871 407.635 22.1613V42.3387C407.635 43.6613 407.974 44.5646 408.651 45.0484C409.329 45.5323 410.522 45.7904 412.232 45.8226V47.7097C411.748 47.6775 411.071 47.6613 410.2 47.6613C409.361 47.6291 408.426 47.5968 407.393 47.5646C406.393 47.5323 405.393 47.5162 404.393 47.5162C402.877 47.5162 401.345 47.5484 399.797 47.6129C398.281 47.6452 397.135 47.6775 396.361 47.7097ZM404.103 17.7097C403.039 17.7097 402.087 17.371 401.248 16.6936C400.442 16.0162 400.039 15.0968 400.039 13.9355C400.039 12.742 400.442 11.8065 401.248 11.1291C402.087 10.4517 403.039 10.1129 404.103 10.1129C405.168 10.1129 406.103 10.4517 406.91 11.1291C407.748 11.8065 408.168 12.7258 408.168 13.8871C408.168 15.0807 407.748 16.0162 406.91 16.6936C406.103 17.371 405.168 17.7097 404.103 17.7097ZM422.694 48.3871C420.565 48.3871 418.871 47.8387 417.613 46.742C416.355 45.6129 415.726 44.0968 415.726 42.1936C415.726 40.7097 416.065 39.5162 416.742 38.6129C417.452 37.6775 418.355 36.9194 419.452 36.3387C420.548 35.7581 421.71 35.2904 422.936 34.9355C424.194 34.5484 425.371 34.1936 426.468 33.871C427.565 33.5162 428.452 33.1129 429.129 32.6613C429.839 32.1775 430.194 31.5484 430.194 30.7742V28.4517C430.194 27 429.807 25.8871 429.032 25.1129C428.258 24.3387 427.113 23.9517 425.597 23.9517C424.5 23.9517 423.597 24.1129 422.887 24.4355C422.178 24.7581 421.823 25.1775 421.823 25.6936C421.823 26.0807 421.952 26.4678 422.21 26.8549C422.468 27.242 422.71 27.6613 422.936 28.1129C423.194 28.5323 423.323 29 423.323 29.5162C423.323 30.2258 423.032 30.8065 422.452 31.2581C421.903 31.6775 421.161 31.8871 420.226 31.8871C419.161 31.8871 418.307 31.5807 417.661 30.9678C417.048 30.3226 416.742 29.4839 416.742 28.4517C416.742 27.1613 417.194 26.0484 418.097 25.1129C419.032 24.1452 420.323 23.3871 421.968 22.8387C423.613 22.2904 425.5 22.0162 427.629 22.0162C429.823 22.0162 431.597 22.3226 432.952 22.9355C434.307 23.5162 435.29 24.4839 435.903 25.8388C436.548 27.1613 436.871 28.9355 436.871 31.1613V43.6452C436.871 44.3871 436.984 44.9194 437.21 45.242C437.436 45.5646 437.807 45.7258 438.323 45.7258C438.742 45.7258 439.178 45.6291 439.629 45.4355C440.081 45.242 440.532 44.9839 440.984 44.6613L441.758 46.2097C440.919 46.9194 439.968 47.4517 438.903 47.8065C437.839 48.1936 436.645 48.3871 435.323 48.3871C431.968 48.3871 430.274 47.0646 430.242 44.4194C429.307 45.742 428.21 46.742 426.952 47.4194C425.694 48.0646 424.274 48.3871 422.694 48.3871ZM425.79 44.8065C426.661 44.8065 427.468 44.6129 428.21 44.2258C428.952 43.8065 429.613 43.2097 430.194 42.4355V33.4355C429.903 33.9194 429.452 34.3549 428.839 34.742C428.258 35.0968 427.597 35.4517 426.855 35.8065C426.113 36.1613 425.403 36.5646 424.726 37.0162C424.048 37.4678 423.484 38.0323 423.032 38.7097C422.581 39.3549 422.355 40.1775 422.355 41.1775C422.355 42.3065 422.661 43.1936 423.274 43.8387C423.887 44.4839 424.726 44.8065 425.79 44.8065Z" fill="white"/>
<path d="M143.847 92.1613C142.642 92.1613 141.61 91.914 140.75 91.4194C139.89 90.9248 139.277 90.3441 138.911 89.6775L139.266 88.5484C139.546 89.1506 140.008 89.656 140.653 90.0646C141.32 90.4517 142.083 90.6452 142.944 90.6452C144.449 90.6452 145.599 90.0215 146.395 88.7742C147.191 87.5269 147.589 85.7097 147.589 83.3226C147.589 81.0861 147.234 79.3656 146.524 78.1613C145.836 76.957 144.825 76.3549 143.492 76.3549C142.589 76.3549 141.739 76.6452 140.944 77.2258C140.148 77.785 139.61 78.4947 139.331 79.3549L139.105 78.5807C139.427 77.3979 140.105 76.4409 141.137 75.7097C142.169 74.9785 143.363 74.6129 144.718 74.6129C146.073 74.6129 147.245 74.9678 148.234 75.6775C149.223 76.3871 149.987 77.3764 150.524 78.6452C151.062 79.914 151.331 81.4194 151.331 83.1613C151.331 85.0108 151.019 86.6129 150.395 87.9678C149.793 89.3011 148.922 90.3334 147.782 91.0646C146.664 91.7957 145.352 92.1613 143.847 92.1613ZM135.815 92.2258L134.944 91.1936C135.223 90.914 135.438 90.6344 135.589 90.3549C135.761 90.0753 135.868 89.742 135.911 89.3549C135.976 88.9678 136.008 88.5054 136.008 87.9678V70.9033C136.008 69.8925 135.761 69.1721 135.266 68.742C134.772 68.3119 133.879 68.0861 132.589 68.0646V66.7742C132.976 66.7957 133.395 66.8172 133.847 66.8387C134.32 66.8603 134.772 66.871 135.202 66.871C136.062 66.871 136.847 66.8387 137.556 66.7742C138.266 66.6882 138.933 66.5699 139.556 66.4194V90.1613C139.105 90.2689 138.653 90.4194 138.202 90.6129C137.75 90.8065 137.32 91.0431 136.911 91.3226C136.503 91.6022 136.137 91.9033 135.815 92.2258ZM162.953 92.5484L156.728 78.4517C156.405 77.7205 155.986 77.1936 155.469 76.871C154.953 76.5269 154.287 76.3549 153.469 76.3549V75.0968C154.244 75.1183 154.975 75.1398 155.663 75.1613C156.373 75.1828 157.158 75.1936 158.018 75.1936C158.964 75.1936 159.792 75.1828 160.502 75.1613C161.211 75.1398 161.867 75.1183 162.469 75.0968V76.3549C161.416 76.3764 160.76 76.5807 160.502 76.9678C160.244 77.3549 160.319 78.0108 160.728 78.9355L164.792 88.2258L164.211 88.4517L167.179 80.9678C167.566 79.9785 167.749 79.1506 167.728 78.4839C167.728 77.8172 167.523 77.3119 167.115 76.9678C166.728 76.6022 166.147 76.3979 165.373 76.3549V75.0968C165.91 75.1183 166.383 75.1398 166.792 75.1613C167.201 75.1613 167.599 75.1613 167.986 75.1613C168.394 75.1613 168.824 75.1613 169.276 75.1613C169.857 75.1613 170.459 75.1613 171.082 75.1613C171.706 75.1398 172.244 75.1183 172.695 75.0968V76.3549C171.814 76.4409 171.072 76.7635 170.469 77.3226C169.867 77.8818 169.33 78.7742 168.857 80L163.986 92.5484H162.953ZM158.405 99.6129C157.33 99.6129 156.459 99.3334 155.792 98.7742C155.147 98.2366 154.824 97.5269 154.824 96.6452C154.824 95.9355 155.039 95.3656 155.469 94.9355C155.9 94.5269 156.459 94.3226 157.147 94.3226C157.642 94.3226 158.039 94.4409 158.34 94.6775C158.642 94.9355 158.792 95.2796 158.792 95.7097C158.792 96.0108 158.738 96.2796 158.631 96.5162C158.523 96.7527 158.416 96.9678 158.308 97.1613C158.201 97.3764 158.147 97.5914 158.147 97.8065C158.147 98.1721 158.383 98.3549 158.857 98.3549C159.351 98.3549 159.792 98.1828 160.179 97.8387C160.566 97.4947 160.9 96.9785 161.179 96.2904L163.244 91.1291L164.308 91.7097L162.437 96.4194C162.136 97.1506 161.792 97.7527 161.405 98.2258C161.039 98.699 160.609 99.043 160.115 99.2581C159.642 99.4947 159.072 99.6129 158.405 99.6129ZM183.669 91.7097V90.4517C184.765 90.4086 185.572 90.3226 186.088 90.1936C186.604 90.0431 186.948 89.785 187.12 89.4194C187.292 89.0323 187.378 88.4517 187.378 87.6775V72.9033C187.378 72.1291 187.292 71.5592 187.12 71.1936C186.948 70.8065 186.604 70.5377 186.088 70.3871C185.572 70.2366 184.765 70.1506 183.669 70.1291V68.871C184.314 68.8925 185.077 68.914 185.959 68.9355C186.841 68.9355 187.927 68.9355 189.217 68.9355C189.819 68.9355 190.421 68.9355 191.023 68.9355C191.647 68.914 192.228 68.9033 192.765 68.9033C193.324 68.8818 193.776 68.871 194.12 68.871C198.292 68.871 201.443 69.7957 203.572 71.6452C205.701 73.4947 206.765 76.2151 206.765 79.8065C206.765 82.3226 206.26 84.4732 205.249 86.2581C204.238 88.0215 202.776 89.3764 200.862 90.3226C198.97 91.2474 196.69 91.7097 194.023 91.7097C193.464 91.7097 192.787 91.699 191.991 91.6775C191.217 91.6344 190.292 91.6129 189.217 91.6129C188.12 91.6129 187.077 91.6237 186.088 91.6452C185.099 91.6667 184.292 91.6882 183.669 91.7097ZM193.862 90.4839C196.937 90.4839 199.185 89.6667 200.604 88.0323C202.045 86.3979 202.765 83.8065 202.765 80.2581C202.765 76.6882 202.056 74.1076 200.636 72.5162C199.238 70.9033 196.98 70.0968 193.862 70.0968H191.12V87.742C191.12 88.5162 191.185 89.1076 191.314 89.5162C191.464 89.9033 191.733 90.1613 192.12 90.2904C192.507 90.4194 193.088 90.4839 193.862 90.4839ZM210.134 91.7097V90.4517C211.446 90.4301 212.349 90.2581 212.844 89.9355C213.338 89.5914 213.586 88.9893 213.586 88.1291V79.1613C213.586 78.1506 213.317 77.4409 212.779 77.0323C212.263 76.6022 211.381 76.3656 210.134 76.3226V75.0646C210.629 75.0861 211.091 75.1076 211.521 75.1291C211.973 75.1506 212.446 75.1613 212.94 75.1613C214.467 75.1613 215.854 75.0108 217.102 74.7097V87.9355C217.102 88.8387 217.424 89.4839 218.069 89.871C218.715 90.2366 219.833 90.4301 221.424 90.4517V91.7097C221.037 91.6882 220.51 91.6775 219.844 91.6775C219.177 91.656 218.457 91.6344 217.682 91.6129C216.908 91.5914 216.145 91.5807 215.392 91.5807C214.338 91.5807 213.317 91.6022 212.328 91.6452C211.36 91.6667 210.629 91.6882 210.134 91.7097ZM223.005 80.5162C222.51 80.5162 222.112 80.3871 221.811 80.1291C221.51 79.8495 221.36 79.4947 221.36 79.0646C221.36 78.7635 221.414 78.5054 221.521 78.2904C221.65 78.0538 221.768 77.828 221.876 77.6129C221.983 77.3979 222.037 77.1936 222.037 77C222.037 76.5484 221.715 76.3226 221.069 76.3226C220.575 76.3226 220.048 76.4517 219.489 76.7097C218.951 76.9463 218.457 77.2796 218.005 77.7097C217.553 78.1183 217.22 78.5914 217.005 79.1291L216.908 77.7742C217.489 76.785 218.231 76.0108 219.134 75.4517C220.037 74.8925 220.983 74.6129 221.973 74.6129C222.983 74.6129 223.779 74.9033 224.36 75.4839C224.962 76.0646 225.263 76.8387 225.263 77.8065C225.263 78.6237 225.048 79.2796 224.618 79.7742C224.209 80.2689 223.672 80.5162 223.005 80.5162ZM247.402 92.1613C245.294 92.1613 243.455 91.6882 241.885 90.742C240.316 89.7742 239.1 88.4301 238.24 86.7097C237.38 84.9678 236.95 82.9248 236.95 80.5807C236.95 78.1721 237.402 76.0538 238.305 74.2258C239.208 72.3979 240.466 70.9785 242.079 69.9678C243.692 68.9355 245.563 68.4194 247.692 68.4194C248.703 68.4194 249.584 68.5269 250.337 68.742C251.09 68.9355 251.735 69.1828 252.273 69.4839C252.832 69.7635 253.305 70.0108 253.692 70.2258C254.1 70.4194 254.466 70.5162 254.789 70.5162C255.111 70.5162 255.359 70.3656 255.531 70.0646C255.703 69.742 255.832 69.2474 255.918 68.5807H257.208C257.187 69.2043 257.165 69.8818 257.143 70.6129C257.122 71.3226 257.1 72.1936 257.079 73.2258C257.079 74.2581 257.079 75.5377 257.079 77.0646H255.789C255.552 75.5807 255.09 74.2904 254.402 73.1936C253.713 72.0968 252.842 71.2474 251.789 70.6452C250.756 70.0431 249.584 69.742 248.273 69.742C246.724 69.742 245.402 70.1613 244.305 71C243.208 71.8387 242.369 73.0538 241.789 74.6452C241.208 76.2151 240.918 78.1183 240.918 80.3549C240.918 83.6882 241.563 86.2796 242.853 88.1291C244.143 89.9785 245.939 90.9033 248.24 90.9033C249.273 90.9033 250.165 90.742 250.918 90.4194C251.692 90.0968 252.283 89.6452 252.692 89.0646C253.122 88.4839 253.337 87.8065 253.337 87.0323V84.5807C253.337 83.957 253.24 83.4839 253.047 83.1613C252.853 82.8387 252.488 82.6129 251.95 82.4839C251.434 82.3334 250.67 82.2366 249.66 82.1936V80.9678C250.111 80.9893 250.767 81.0108 251.627 81.0323C252.509 81.0538 253.531 81.0646 254.692 81.0646C255.767 81.0646 256.692 81.0538 257.466 81.0323C258.262 81.0108 258.961 80.9893 259.563 80.9678V82.1936C258.875 82.2366 258.348 82.3334 257.982 82.4839C257.638 82.6344 257.402 82.9033 257.273 83.2904C257.143 83.656 257.079 84.2151 257.079 84.9678V91.9033H255.853C255.746 91.3656 255.606 90.9785 255.434 90.742C255.262 90.5054 255.004 90.3871 254.66 90.3871C254.316 90.3871 253.918 90.4732 253.466 90.6452C253.036 90.8172 252.541 91.0323 251.982 91.2904C251.423 91.5269 250.767 91.7312 250.014 91.9033C249.283 92.0753 248.412 92.1613 247.402 92.1613ZM262.481 91.7097V90.4517C263.793 90.4301 264.696 90.2581 265.191 89.9355C265.686 89.5914 265.933 88.9893 265.933 88.1291V79.1613C265.933 78.1506 265.664 77.4409 265.127 77.0323C264.61 76.6022 263.729 76.3656 262.481 76.3226V75.0646C262.976 75.0861 263.438 75.1076 263.869 75.1291C264.32 75.1506 264.793 75.1613 265.288 75.1613C266.815 75.1613 268.202 75.0108 269.449 74.7097V87.9355C269.449 88.8387 269.772 89.4839 270.417 89.871C271.062 90.2366 272.18 90.4301 273.772 90.4517V91.7097C273.385 91.6882 272.858 91.6775 272.191 91.6775C271.524 91.656 270.804 91.6344 270.03 91.6129C269.256 91.5914 268.492 91.5807 267.739 91.5807C266.686 91.5807 265.664 91.6022 264.675 91.6452C263.707 91.6667 262.976 91.6882 262.481 91.7097ZM275.352 80.5162C274.858 80.5162 274.46 80.3871 274.159 80.1291C273.858 79.8495 273.707 79.4947 273.707 79.0646C273.707 78.7635 273.761 78.5054 273.869 78.2904C273.998 78.0538 274.116 77.828 274.223 77.6129C274.331 77.3979 274.385 77.1936 274.385 77C274.385 76.5484 274.062 76.3226 273.417 76.3226C272.922 76.3226 272.395 76.4517 271.836 76.7097C271.299 76.9463 270.804 77.2796 270.352 77.7097C269.901 78.1183 269.567 78.5914 269.352 79.1291L269.256 77.7742C269.836 76.785 270.578 76.0108 271.481 75.4517C272.385 74.8925 273.331 74.6129 274.32 74.6129C275.331 74.6129 276.127 74.9033 276.707 75.4839C277.309 76.0646 277.61 76.8387 277.61 77.8065C277.61 78.6237 277.395 79.2796 276.965 79.7742C276.557 80.2689 276.019 80.5162 275.352 80.5162ZM288.201 92.1613C286.675 92.1613 285.309 91.8495 284.105 91.2258C282.922 90.6022 281.976 89.6452 281.266 88.3549C280.578 87.0646 280.234 85.4194 280.234 83.4194C280.234 81.3979 280.578 79.742 281.266 78.4517C281.976 77.1398 282.933 76.1721 284.137 75.5484C285.341 74.9248 286.696 74.6129 288.201 74.6129C289.728 74.6129 291.083 74.9248 292.266 75.5484C293.449 76.1721 294.384 77.1398 295.072 78.4517C295.782 79.742 296.137 81.3979 296.137 83.4194C296.137 85.4194 295.782 87.0646 295.072 88.3549C294.384 89.6452 293.449 90.6022 292.266 91.2258C291.083 91.8495 289.728 92.1613 288.201 92.1613ZM288.201 90.9033C289.406 90.9033 290.406 90.3119 291.201 89.1291C291.997 87.9463 292.395 86.0431 292.395 83.4194C292.395 80.7742 291.997 78.8603 291.201 77.6775C290.406 76.4732 289.406 75.871 288.201 75.871C286.976 75.871 285.965 76.4732 285.169 77.6775C284.373 78.8603 283.976 80.7742 283.976 83.4194C283.976 86.0431 284.373 87.9463 285.169 89.1291C285.965 90.3119 286.976 90.9033 288.201 90.9033ZM308.108 92.1613C306.538 92.1613 305.172 91.8172 304.011 91.1291C302.871 90.4194 301.989 89.4194 301.366 88.1291C300.742 86.8172 300.43 85.2689 300.43 83.4839C300.43 81.656 300.753 80.0861 301.398 78.7742C302.065 77.4409 302.989 76.4194 304.172 75.7097C305.376 74.9785 306.807 74.6129 308.462 74.6129C309.667 74.6129 310.731 74.8065 311.656 75.1936C312.602 75.5592 313.344 76.0646 313.882 76.7097C314.419 77.3334 314.688 78.0646 314.688 78.9033C314.688 79.656 314.452 80.2796 313.979 80.7742C313.527 81.2474 312.936 81.4839 312.204 81.4839C311.645 81.4839 311.183 81.3334 310.817 81.0323C310.473 80.7312 310.301 80.3441 310.301 79.871C310.301 79.4409 310.398 79.0646 310.592 78.742C310.807 78.4194 311.011 78.1291 311.204 77.871C311.419 77.5914 311.527 77.3119 311.527 77.0323C311.527 76.6882 311.312 76.4194 310.882 76.2258C310.452 76.0108 309.882 75.9033 309.172 75.9033C307.581 75.9033 306.344 76.5269 305.462 77.7742C304.602 79.0215 304.172 80.7957 304.172 83.0968C304.172 85.3979 304.592 87.1613 305.43 88.3871C306.29 89.6129 307.527 90.2258 309.14 90.2258C310.172 90.2258 311.075 89.957 311.85 89.4194C312.645 88.8603 313.301 88.0323 313.817 86.9355L314.979 87.6129C314.419 89.0538 313.538 90.1721 312.333 90.9678C311.151 91.7635 309.742 92.1613 308.108 92.1613ZM329.079 91.7097V90.4517C329.961 90.4301 330.563 90.2581 330.886 89.9355C331.23 89.5914 331.402 88.9893 331.402 88.1291V80.4194C331.402 79.1076 331.144 78.1183 330.628 77.4517C330.112 76.785 329.337 76.4517 328.305 76.4517C327.466 76.4517 326.692 76.6882 325.983 77.1613C325.273 77.6129 324.649 78.2796 324.112 79.1613L324.144 77.742C324.682 76.7527 325.434 75.9893 326.402 75.4517C327.391 74.8925 328.488 74.6129 329.692 74.6129C331.37 74.6129 332.66 75.1398 333.563 76.1936C334.488 77.2474 334.95 78.7527 334.95 80.7097V88.1291C334.95 88.9893 335.198 89.5914 335.692 89.9355C336.187 90.2581 337.09 90.4301 338.402 90.4517V91.7097C338.079 91.6882 337.628 91.6775 337.047 91.6775C336.488 91.656 335.864 91.6344 335.176 91.6129C334.509 91.5914 333.864 91.5807 333.241 91.5807C332.423 91.5807 331.617 91.6022 330.821 91.6452C330.047 91.6667 329.466 91.6882 329.079 91.7097ZM317.337 91.7097V90.4517C318.649 90.4301 319.552 90.2581 320.047 89.9355C320.542 89.5914 320.789 88.9893 320.789 88.1291V70.9033C320.789 69.8925 320.531 69.1828 320.015 68.7742C319.499 68.3441 318.606 68.1076 317.337 68.0646V66.8065C317.789 66.828 318.241 66.8495 318.692 66.871C319.144 66.8925 319.606 66.9033 320.079 66.9033C320.854 66.9033 321.595 66.871 322.305 66.8065C323.015 66.7205 323.682 66.6022 324.305 66.4517V88.1291C324.305 88.9893 324.466 89.5914 324.789 89.9355C325.133 90.2581 325.746 90.4301 326.628 90.4517V91.7097C326.198 91.6882 325.606 91.6667 324.854 91.6452C324.101 91.6022 323.327 91.5807 322.531 91.5807C321.606 91.5807 320.649 91.6022 319.66 91.6452C318.692 91.6667 317.918 91.6882 317.337 91.7097ZM348.839 92.1613C347.269 92.1613 345.903 91.8172 344.742 91.1291C343.581 90.4194 342.677 89.4086 342.032 88.0968C341.409 86.785 341.097 85.2366 341.097 83.4517C341.097 81.6237 341.419 80.0538 342.064 78.742C342.71 77.4086 343.634 76.3871 344.839 75.6775C346.043 74.9678 347.462 74.6129 349.097 74.6129C350.538 74.6129 351.774 74.8925 352.806 75.4517C353.839 75.9893 354.624 76.8387 355.161 78C355.699 79.1613 355.946 80.6667 355.903 82.5162H343.516L343.484 81.2904H352.452C352.473 80.2581 352.366 79.3334 352.129 78.5162C351.892 77.699 351.505 77.0538 350.968 76.5807C350.452 76.1076 349.785 75.871 348.968 75.871C347.935 75.871 347.021 76.3334 346.226 77.2581C345.452 78.1613 344.989 79.6022 344.839 81.5807L344.903 81.6775C344.882 81.8925 344.86 82.1291 344.839 82.3871C344.839 82.6237 344.839 82.8925 344.839 83.1936C344.839 85.4086 345.269 87.1398 346.129 88.3871C347.011 89.6129 348.258 90.2258 349.871 90.2258C350.946 90.2258 351.892 89.957 352.71 89.4194C353.548 88.8818 354.247 88.0538 354.806 86.9355L355.935 87.6129C355.355 89.0538 354.441 90.1721 353.194 90.9678C351.968 91.7635 350.516 92.1613 348.839 92.1613ZM367.799 92.1613C366.229 92.1613 364.863 91.8172 363.702 91.1291C362.562 90.4194 361.681 89.4194 361.057 88.1291C360.433 86.8172 360.121 85.2689 360.121 83.4839C360.121 81.656 360.444 80.0861 361.089 78.7742C361.756 77.4409 362.681 76.4194 363.863 75.7097C365.068 74.9785 366.498 74.6129 368.154 74.6129C369.358 74.6129 370.422 74.8065 371.347 75.1936C372.293 75.5592 373.035 76.0646 373.573 76.7097C374.111 77.3334 374.379 78.0646 374.379 78.9033C374.379 79.656 374.143 80.2796 373.67 80.7742C373.218 81.2474 372.627 81.4839 371.896 81.4839C371.336 81.4839 370.874 81.3334 370.509 81.0323C370.164 80.7312 369.992 80.3441 369.992 79.871C369.992 79.4409 370.089 79.0646 370.283 78.742C370.498 78.4194 370.702 78.1291 370.896 77.871C371.111 77.5914 371.218 77.3119 371.218 77.0323C371.218 76.6882 371.003 76.4194 370.573 76.2258C370.143 76.0108 369.573 75.9033 368.863 75.9033C367.272 75.9033 366.035 76.5269 365.154 77.7742C364.293 79.0215 363.863 80.7957 363.863 83.0968C363.863 85.3979 364.283 87.1613 365.121 88.3871C365.982 89.6129 367.218 90.2258 368.831 90.2258C369.863 90.2258 370.767 89.957 371.541 89.4194C372.336 88.8603 372.992 88.0323 373.509 86.9355L374.67 87.6129C374.111 89.0538 373.229 90.1721 372.025 90.9678C370.842 91.7635 369.433 92.1613 367.799 92.1613ZM377.029 91.7097V90.4517C378.34 90.3871 379.244 90.1936 379.738 89.871C380.233 89.5484 380.48 88.9678 380.48 88.1291V70.9033C380.48 69.871 380.222 69.1506 379.706 68.742C379.19 68.3119 378.297 68.0861 377.029 68.0646V66.7742C377.502 66.7957 377.964 66.8172 378.416 66.8387C378.867 66.8603 379.319 66.871 379.771 66.871C381.276 66.871 382.685 66.7205 383.996 66.4194V88.1291C383.996 88.9678 384.158 89.5484 384.48 89.871C384.824 90.1936 385.448 90.3871 386.351 90.4517V91.7097C385.9 91.6882 385.287 91.6667 384.513 91.6452C383.76 91.6022 382.996 91.5807 382.222 91.5807C381.276 91.5807 380.297 91.6022 379.287 91.6452C378.297 91.6667 377.545 91.6882 377.029 91.7097ZM388.996 91.7097V90.4517C389.857 90.3656 390.383 90.1828 390.577 89.9033C390.792 89.6237 390.749 89.1613 390.448 88.5162L389.093 85.6129C388.706 84.7742 388.276 84.1936 387.803 83.871C387.351 83.5484 386.717 83.3871 385.9 83.3871H383.448V82.1291H386.254C386.943 82.1291 387.523 82.0215 387.996 81.8065C388.469 81.5914 388.91 81.2151 389.319 80.6775L390.061 79.6452C390.426 79.1721 390.652 78.742 390.738 78.3549C390.846 77.9678 390.803 77.6344 390.609 77.3549C390.437 77.0538 390.115 76.8172 389.642 76.6452C389.168 76.4732 388.556 76.3764 387.803 76.3549V75.0968C388.426 75.1183 389.125 75.1398 389.9 75.1613C390.695 75.1828 391.556 75.1936 392.48 75.1936C393.061 75.1936 393.599 75.1936 394.093 75.1936C394.588 75.1721 395.05 75.1613 395.48 75.1613C395.932 75.1398 396.362 75.1183 396.771 75.0968V76.3549C395.975 76.5054 395.297 76.699 394.738 76.9355C394.179 77.1721 393.674 77.4839 393.222 77.871C392.792 78.2366 392.351 78.7205 391.9 79.3226L389.448 82.6129L388.738 81.8387C389.405 81.9033 389.964 82.0538 390.416 82.2904C390.889 82.5269 391.297 82.8818 391.642 83.3549C392.007 83.828 392.373 84.4732 392.738 85.2904L393.932 87.7097C394.254 88.3979 394.588 88.9355 394.932 89.3226C395.276 89.6882 395.695 89.957 396.19 90.1291C396.685 90.2796 397.319 90.3871 398.093 90.4517V91.7097C397.319 91.6882 396.652 91.6775 396.093 91.6775C395.556 91.656 395.072 91.6452 394.642 91.6452C394.233 91.6237 393.814 91.6129 393.383 91.6129C392.738 91.6129 392.093 91.6237 391.448 91.6452C390.824 91.6452 390.007 91.6667 388.996 91.7097ZM405.353 92.1613C403.912 92.1613 402.762 91.785 401.902 91.0323C401.063 90.2796 400.644 89.2581 400.644 87.9678C400.644 86.9785 400.88 86.1721 401.353 85.5484C401.826 84.9248 402.439 84.4301 403.192 84.0646C403.966 83.6775 404.773 83.3656 405.611 83.1291C406.45 82.871 407.246 82.6452 407.998 82.4517C408.751 82.2366 409.364 81.9785 409.837 81.6775C410.31 81.3764 410.547 80.9893 410.547 80.5162V78.9678C410.547 77.957 410.256 77.1936 409.676 76.6775C409.117 76.1613 408.267 75.9033 407.127 75.9033C406.31 75.9033 405.622 76.0215 405.063 76.2581C404.525 76.4947 404.256 76.785 404.256 77.1291C404.256 77.3441 404.332 77.5699 404.482 77.8065C404.633 78.0431 404.783 78.3011 404.934 78.5807C405.084 78.8603 405.16 79.1613 405.16 79.4839C405.16 79.914 404.988 80.2689 404.644 80.5484C404.321 80.8065 403.891 80.9355 403.353 80.9355C402.73 80.9355 402.224 80.742 401.837 80.3549C401.471 79.9678 401.289 79.4517 401.289 78.8065C401.289 77.9893 401.59 77.2689 402.192 76.6452C402.794 76.0215 403.622 75.5269 404.676 75.1613C405.73 74.7957 406.912 74.6129 408.224 74.6129C409.601 74.6129 410.719 74.8172 411.579 75.2258C412.439 75.6344 413.063 76.2796 413.45 77.1613C413.859 78.0215 414.063 79.1613 414.063 80.5807V89.0323C414.063 89.5484 414.149 89.9248 414.321 90.1613C414.493 90.3764 414.762 90.4839 415.127 90.4839C415.45 90.4839 415.783 90.4086 416.127 90.2581C416.471 90.0861 416.816 89.871 417.16 89.6129L417.74 90.6452C417.181 91.1398 416.579 91.5162 415.934 91.7742C415.289 92.0323 414.558 92.1613 413.74 92.1613C411.633 92.1613 410.568 91.2366 410.547 89.3871C409.923 90.3119 409.181 91.0108 408.321 91.4839C407.461 91.9355 406.471 92.1613 405.353 92.1613ZM406.869 90.0646C407.579 90.0646 408.246 89.8925 408.869 89.5484C409.515 89.2043 410.074 88.6882 410.547 88V82.1936C410.332 82.5377 409.977 82.828 409.482 83.0646C409.009 83.3011 408.471 83.5377 407.869 83.7742C407.289 83.9893 406.719 84.2474 406.16 84.5484C405.601 84.8495 405.138 85.2366 404.773 85.7097C404.407 86.1613 404.224 86.7527 404.224 87.4839C404.224 88.3011 404.45 88.9355 404.902 89.3871C405.375 89.8387 406.031 90.0646 406.869 90.0646Z" fill="white"/>
</svg>
